<?xml version="1.0" encoding="utf-8"?>
<!-- Generator: Adobe Illustrator 21.1.0, SVG Export Plug-In . SVG Version: 6.00 Build 0)  -->
<svg version="1.1" id="Слой_1" xmlns="http://www.w3.org/2000/svg" xmlns:xlink="http://www.w3.org/1999/xlink" x="0px" y="0px"
	 viewBox="0 0 231.7 570.7" enable-background="new 0 0 231.7 570.7" xml:space="preserve">
<g>
	<g>
		<path fill="#65C8D0" d="M111.4,31.6c6.4,0,6.4-10,0-10C105,21.6,105,31.6,111.4,31.6L111.4,31.6z"/>
	</g>
</g>
<g>
	<g>
		<path fill="#65C8D0" d="M93.4,105.6c6.4,0,6.4-10,0-10C87,95.6,87,105.6,93.4,105.6L93.4,105.6z"/>
	</g>
</g>
<g>
	<g>
		<path fill="#65C8D0" d="M143.4,101.6c6.4,0,6.4-10,0-10C137,91.6,137,101.6,143.4,101.6L143.4,101.6z"/>
	</g>
</g>
<g>
	<g>
		<path fill="#65C8D0" d="M79.4,159.6c6.4,0,6.4-10,0-10C73,149.6,73,159.6,79.4,159.6L79.4,159.6z"/>
	</g>
</g>
<g>
	<g>
		<path fill="#65C8D0" d="M163.4,155.6c6.4,0,6.4-10,0-10C157,145.6,157,155.6,163.4,155.6L163.4,155.6z"/>
	</g>
</g>
<g>
	<g>
		<path fill="#65C8D0" d="M59.4,237.6c6.4,0,6.4-10,0-10C53,227.6,53,237.6,59.4,237.6L59.4,237.6z"/>
	</g>
</g>
<g>
	<g>
		<path fill="#65C8D0" d="M185.4,233.6c6.4,0,6.4-10,0-10C179,223.6,179,233.6,185.4,233.6L185.4,233.6z"/>
	</g>
</g>
<g>
	<g>
		<path fill="#65C8D0" d="M43.4,317.6c6.4,0,6.4-10,0-10C37,307.6,37,317.6,43.4,317.6L43.4,317.6z"/>
	</g>
</g>
<g>
	<g>
		<path fill="#65C8D0" d="M203.4,319.6c6.4,0,6.4-10,0-10C197,309.6,197,319.6,203.4,319.6L203.4,319.6z"/>
	</g>
</g>
<g>
	<g>
		<path fill="#65C8D0" d="M33.4,405.6c6.4,0,6.4-10,0-10C27,395.6,27,405.6,33.4,405.6L33.4,405.6z"/>
	</g>
</g>
<g>
	<g>
		<path fill="#65C8D0" d="M215.4,413.6c6.4,0,6.4-10,0-10C209,403.6,209,413.6,215.4,413.6L215.4,413.6z"/>
	</g>
</g>
<g>
	<g>
		<path fill="#65C8D0" d="M29.4,493.6c6.4,0,6.4-10,0-10C23,483.6,23,493.6,29.4,493.6L29.4,493.6z"/>
	</g>
</g>
<g>
	<g>
		<path fill="#65C8D0" d="M145.4,499.6c6.4,0,6.4-10,0-10C139,489.6,139,499.6,145.4,499.6L145.4,499.6z"/>
	</g>
</g>
<g>
	<g>
		<path fill="#65C8D0" d="M134.8,407.3c1,0,3.1-1.4,1.2-1.4C135,405.9,132.9,407.3,134.8,407.3L134.8,407.3z"/>
	</g>
</g>
<g>
	<g>
		<path fill="#65C8D0" d="M137.4,415.6c6.4,0,6.4-10,0-10C131,405.6,131,415.6,137.4,415.6L137.4,415.6z"/>
	</g>
</g>
<g>
	<g>
		<path fill="#65C8D0" d="M129.4,323.6c6.4,0,6.4-10,0-10C123,313.6,123,323.6,129.4,323.6L129.4,323.6z"/>
	</g>
</g>
<g>
	<g>
		<path fill="#65C8D0" d="M131.4,249.6c6.4,0,6.4-10,0-10C125,239.6,125,249.6,131.4,249.6L131.4,249.6z"/>
	</g>
</g>
<g>
	<g>
		<path fill="#65C8D0" d="M117.4,175.6c6.4,0,6.4-10,0-10C111,165.6,111,175.6,117.4,175.6L117.4,175.6z"/>
	</g>
</g>
<g>
	<g>
		<path fill="#65C8D0" d="M119.4,113.6c6.4,0,6.4-10,0-10C113,103.6,113,113.6,119.4,113.6L119.4,113.6z"/>
	</g>
</g>
<g>
	<g>
		<path fill="#65C8D0" d="M94.3,124.8c4,0.7,8,1.4,12,2.1c0.7,0.1,3.1-1,2.4-1.1c-4-0.7-8-1.4-12-2.1
			C96,123.6,93.5,124.7,94.3,124.8L94.3,124.8z"/>
	</g>
</g>
<g>
	<g>
		<path fill="#65C8D0" d="M129.6,127.4c2-0.7,4-1.4,6-2c0.5-0.2,1.4-0.6,1.2-1.3c-0.2-0.6-1.2-0.7-1.7-0.5c-2,0.7-4,1.4-6,2
			c-0.5,0.2-1.4,0.6-1.2,1.3C128.1,127.5,129.1,127.5,129.6,127.4L129.6,127.4z"/>
	</g>
</g>
<g>
	<g>
		<path fill="#65C8D0" d="M138.8,181.2c0.9,0,3.1-1.3,1.2-1.3C139.2,179.9,136.9,181.2,138.8,181.2L138.8,181.2z"/>
	</g>
</g>
<g>
	<g>
		<path fill="#65C8D0" d="M138.5,181.1c2.7,0,5.3,0,8,0c0.6,0,1.6-0.1,2-0.5c0.4-0.3,0.5-0.5-0.1-0.5c-2.7,0-5.3,0-8,0
			c-0.6,0-1.6,0.1-2,0.5C138,180.9,137.8,181.1,138.5,181.1L138.5,181.1z"/>
	</g>
</g>
<g>
	<g>
		<path fill="#65C8D0" d="M140.8,193.4c2,0,4,0,6,0c0.6,0,1.6-0.2,1.9-0.8c0.3-0.6-0.2-0.8-0.8-0.8c-2,0-4,0-6,0
			c-0.6,0-1.6,0.2-1.9,0.8C139.8,193.2,140.3,193.4,140.8,193.4L140.8,193.4z"/>
	</g>
</g>
<g>
	<g>
		<path fill="#65C8D0" d="M140.5,211.2c2,0,4,0,6,0c0.7,0,1.5-0.1,2-0.5c0.4-0.3,0.5-0.7-0.2-0.7c-2,0-4,0-6,0c-0.7,0-1.5,0.1-2,0.5
			C139.9,210.8,139.8,211.2,140.5,211.2L140.5,211.2z"/>
	</g>
</g>
<g>
	<g>
		<path fill="#65C8D0" d="M146.5,229.2c2,0,4,0,6,0c0.7,0,1.5-0.1,2-0.5c0.4-0.3,0.5-0.6-0.2-0.6c-2,0-4,0-6,0c-0.7,0-1.5,0.1-2,0.5
			C145.9,228.8,145.8,229.2,146.5,229.2L146.5,229.2z"/>
	</g>
</g>
<g>
	<g>
		<path fill="#65C8D0" d="M148.9,263.5c1.2,0,3-1.8,1.1-1.8C148.8,261.7,146.9,263.5,148.9,263.5L148.9,263.5z"/>
	</g>
</g>
<g>
	<g>
		<path fill="#65C8D0" d="M148.9,277.6c0.7,0,1.3,0,2,0c0.7,0,1.6-0.2,1.9-0.9c0.3-0.6-0.3-1.1-0.9-1.1c-0.7,0-1.3,0-2,0
			c-0.7,0-1.6,0.2-1.9,0.9C147.7,277.1,148.3,277.6,148.9,277.6L148.9,277.6z"/>
	</g>
</g>
<g>
	<g>
		<path fill="#65C8D0" d="M146.5,287.2c5.2,0.7,10.5-1,14.2-4.7c0.7-0.7-2.1-0.4-2.6,0.1c-2.7,2.6-6,3.8-9.8,3.3
			C147.6,285.8,145,287,146.5,287.2L146.5,287.2z"/>
	</g>
</g>
<g>
	<g>
		<path fill="#65C8D0" d="M161.3,281.6c1.7,0,2.2-2.1,0.3-2.1C159.9,279.5,159.3,281.6,161.3,281.6L161.3,281.6z"/>
	</g>
</g>
<g>
	<g>
		<path fill="#65C8D0" d="M155.3,301.6c2,0,4,0,6,0c1.6,0,2.3-2,0.3-2c-2,0-4,0-6,0C154,299.6,153.3,301.6,155.3,301.6L155.3,301.6z
			"/>
	</g>
</g>
<g>
	<g>
		<path fill="#65C8D0" d="M152.8,309.4c1,0,3.1-1.5,1.2-1.5C153,307.8,150.9,309.4,152.8,309.4L152.8,309.4z"/>
	</g>
</g>
<g>
	<g>
		<path fill="#65C8D0" d="M154.4,329.2c4-2.6,8.1-5.3,12.1-7.9c1.6-1.1-0.9-1.4-1.8-0.8c-4,2.6-8.1,5.3-12.1,7.9
			C151,329.5,153.6,329.8,154.4,329.2L154.4,329.2z"/>
	</g>
</g>
<g>
	<g>
		<path fill="#65C8D0" d="M160.5,343.1c0.6,0,3.3-1.1,1.9-1.1C161.8,342,159.1,343.1,160.5,343.1L160.5,343.1z"/>
	</g>
</g>
<g>
	<g>
		<path fill="#65C8D0" d="M163.3,343.6c1.7,0,2.2-2.1,0.3-2.1C161.9,341.5,161.3,343.6,163.3,343.6L163.3,343.6z"/>
	</g>
</g>
<g>
	<g>
		<path fill="#65C8D0" d="M152.5,353.2c0.6,0,3.3-1.2,1.9-1.2C153.7,352,151.1,353.2,152.5,353.2L152.5,353.2z"/>
	</g>
</g>
<g>
	<g>
		<path fill="#65C8D0" d="M154.5,353.2c1.3,0,2.7,0,4,0c0.7,0,1.5-0.2,2-0.5c0.4-0.3,0.4-0.6-0.2-0.6c-1.3,0-2.7,0-4,0
			c-0.7,0-1.5,0.2-2,0.5C153.9,352.8,153.9,353.2,154.5,353.2L154.5,353.2z"/>
	</g>
</g>
<g>
	<g>
		<path fill="#65C8D0" d="M160.8,363.3c0.9,0,3.1-1.4,1.2-1.4C161.1,361.9,158.9,363.3,160.8,363.3L160.8,363.3z"/>
	</g>
</g>
<g>
	<g>
		<path fill="#65C8D0" d="M160.8,369.4c0.7,0,1.3,0,2,0c0.6,0,1.5-0.2,1.9-0.8c0.4-0.6-0.3-0.8-0.8-0.8c-0.7,0-1.3,0-2,0
			c-0.6,0-1.5,0.2-1.9,0.8C159.7,369.1,160.4,369.4,160.8,369.4L160.8,369.4z"/>
	</g>
</g>
<g>
	<g>
		<path fill="#65C8D0" d="M161.7,395.6c10.9-3.2,21.2-8,30.7-14.3c1.6-1.1-0.7-2.2-1.9-1.4c-9.1,6-18.9,10.5-29.3,13.6
			C159.3,394,159.9,396.1,161.7,395.6L161.7,395.6z"/>
	</g>
</g>
<g>
	<g>
		<path fill="#65C8D0" d="M180.8,401.3c1,0,3.1-1.5,1.2-1.5C181,399.8,178.9,401.3,180.8,401.3L180.8,401.3z"/>
	</g>
</g>
<g>
	<g>
		<path fill="#65C8D0" d="M172.6,412.7c3.3-2,6.7-4,10-6c0.6-0.3,0.2-0.5-0.2-0.6c-0.5-0.2-1.6,0.3-2,0.5c-3.3,2-6.7,4-10,6
			c-0.6,0.3-0.2,0.5,0.2,0.6C171.1,413.5,172.1,413,172.6,412.7L172.6,412.7z"/>
	</g>
</g>
<g>
	<g>
		<path fill="#65C8D0" d="M168.7,442.5c2.7-2.7,5.3-5.3,8-8c0.4-0.4-0.4-0.4-0.7-0.4c-0.6,0-1.5,0.2-1.9,0.7c-2.7,2.7-5.3,5.3-8,8
			c-0.4,0.4,0.4,0.4,0.7,0.4C167.3,443.1,168.3,442.9,168.7,442.5L168.7,442.5z"/>
	</g>
</g>
<g>
	<g>
		<path fill="#65C8D0" d="M165.7,453.8c2-0.7,4-1.4,6-2c0.6-0.2,1.4-0.7,1.2-1.4c-0.2-0.7-1.2-0.8-1.7-0.6c-2,0.7-4,1.4-6,2
			c-0.6,0.2-1.4,0.7-1.2,1.4C164.2,453.8,165.2,454,165.7,453.8L165.7,453.8z"/>
	</g>
</g>
<g>
	<g>
		<path fill="#65C8D0" d="M170.9,470.4c0.7-1.6,2-3,3.9-3c0.6,0,1.6-0.2,1.9-0.8c0.3-0.6-0.3-0.7-0.8-0.7c-3.3,0-6.6,1.8-7.9,4.9
			C167.7,471.6,170.6,471.3,170.9,470.4L170.9,470.4z"/>
	</g>
</g>
<g>
	<g>
		<path fill="#65C8D0" d="M76,519.3c-10.7-1.8-19.8-8-25.6-17.1c-0.6-1-3.4,0-2.7,1.2c6.1,9.7,15.9,16,27.2,17.9
			C76.3,521.5,77.9,519.6,76,519.3L76,519.3z"/>
	</g>
</g>
<g>
	<g>
		<path fill="#65C8D0" d="M69.9,502.7c-14.4-5.3-27.6-13-39.3-23c-0.9-0.8-3.5,0.6-2.2,1.6c11.8,10.1,25.2,17.9,39.8,23.3
			C69.3,505,71.6,503.4,69.9,502.7L69.9,502.7z"/>
	</g>
</g>
<g>
	<g>
		<path fill="#65C8D0" d="M78,478.1c-14.6-0.9-28.2-6.5-39.3-16.1c-0.8-0.7-3.5,0.5-2.7,1.1c11.5,9.9,25.7,15.6,40.8,16.5
			C77.9,479.8,79.9,478.3,78,478.1L78,478.1z"/>
	</g>
</g>
<g>
	<g>
		<path fill="#65C8D0" d="M86.6,456c-10.8-2.7-20.8-7.4-29.8-13.9c-0.7-0.5-3.3,0.6-2.7,1c9.1,6.6,19.2,11.4,30.2,14.1
			C85,457.4,87.6,456.2,86.6,456L86.6,456z"/>
	</g>
</g>
<g>
	<g>
		<path fill="#65C8D0" d="M86.6,426.2c-6.1-4.8-12.8-8.4-20.2-10.8c-1-0.3-3.4,1.1-1.8,1.6c7,2.4,13.4,5.8,19.3,10.4
			C84.8,428,87.5,426.8,86.6,426.2L86.6,426.2z"/>
	</g>
</g>
<g>
	<g>
		<path fill="#65C8D0" d="M86.4,388.5c-5.3-1.6-10.5-3.1-15.8-4.7c-0.7-0.2-3.3,0.9-2.4,1.2c5.3,1.6,10.5,3.1,15.8,4.7
			C84.8,389.9,87.4,388.8,86.4,388.5L86.4,388.5z"/>
	</g>
</g>
<g>
	<g>
		<path fill="#65C8D0" d="M92.5,360c-7.4-3.5-14-8.2-19.7-14c-0.8-0.8-3.6,0.3-2.7,1.2c5.8,6,12.6,10.8,20.1,14.4
			C91.2,362,93.8,360.7,92.5,360L92.5,360z"/>
	</g>
</g>
<g>
	<g>
		<path fill="#65C8D0" d="M84.3,325.7c-4-1.4-7.9-2.8-11.9-4.2c-1-0.4-3.4,1.1-1.7,1.7c4,1.4,7.9,2.8,11.9,4.2
			C83.6,327.8,85.9,326.3,84.3,325.7L84.3,325.7z"/>
	</g>
</g>
<g>
	<g>
		<path fill="#65C8D0" d="M88.8,302c-4.1-2.5-8.2-5.1-12.2-7.6c-0.8-0.5-3.4,0.7-2.7,1.1c4.1,2.5,8.2,5.1,12.2,7.6
			C86.9,303.6,89.5,302.4,88.8,302L88.8,302z"/>
	</g>
</g>
<g>
	<g>
		<path fill="#65C8D0" d="M84.3,267.5c-3.3-1.3-6.7-2.7-10-4c-1.2-0.5-3.4,1.3-1.7,2c3.3,1.3,6.7,2.7,10,4
			C83.9,269.9,86,268.1,84.3,267.5L84.3,267.5z"/>
	</g>
</g>
<g>
	<g>
		<path fill="#65C8D0" d="M86.4,244.5c-2.6-2.1-5.2-4.1-7.8-6.2c-0.7-0.5-3.3,0.6-2.7,1c2.6,2.1,5.2,4.1,7.8,6.2
			C84.4,246.1,87,244.9,86.4,244.5L86.4,244.5z"/>
	</g>
</g>
<g>
	<g>
		<path fill="#65C8D0" d="M87,217.8c-1.9-3.7-5-6.4-8.8-8.1c-1.2-0.6-3.4,1.2-1.7,2c3.4,1.5,6.1,4.1,7.8,7.4
			C85,220.3,87.7,219.2,87,217.8L87,217.8z"/>
	</g>
</g>
<g>
	<g>
		<path fill="#65C8D0" d="M84.9,189.4c1.1,0,3.1-1.6,1.1-1.6C84.9,187.8,82.9,189.4,84.9,189.4L84.9,189.4z"/>
	</g>
</g>
<g>
	<g>
		<path fill="#65C8D0" d="M117.6,147.6c-1.3,0-2.7,0-4,0c-0.6,0-1.5,0.5-1.6,1.1c-0.1,0.7,0.8,0.9,1.3,0.9c1.3,0,2.7,0,4,0
			c0.6,0,1.5-0.5,1.6-1.1C119,147.7,118.1,147.6,117.6,147.6L117.6,147.6z"/>
	</g>
</g>
<g>
	<g>
		<path fill="#65C8D0" d="M122.6,86.2c-4.9-1.2-10-0.3-14.4,2.1c-1.2,0.7,1.7,0.4,2.2,0.1c3.1-1.7,6.4-2,9.8-1.1
			C120.8,87.5,123.4,86.4,122.6,86.2L122.6,86.2z"/>
	</g>
</g>
<g>
	<g>
		<path fill="#65C8D0" d="M122.7,71.6c-2-0.6-4-1.3-6-1.9c-0.6-0.2-1.5,0-2,0.3c-0.3,0.2-1,0.8-0.3,1c2,0.6,4,1.3,6,1.9
			c0.6,0.2,1.5,0,2-0.3C122.7,72.4,123.4,71.8,122.7,71.6L122.7,71.6z"/>
	</g>
</g>
<g>
	<g>
		<path fill="#65C8D0" d="M113.3,53.7c1.7,0,2.2-2.2,0.2-2.2C111.8,51.5,111.3,53.7,113.3,53.7L113.3,53.7z"/>
	</g>
</g>
<g>
	<g>
		<path fill="#65C8D0" d="M54.6,538.3c-5.3-4.7-10.7-9.3-16-14c-0.6-0.5-3.2,0.6-2.7,1c5.3,4.7,10.7,9.3,16,14
			C52.5,539.8,55.1,538.7,54.6,538.3L54.6,538.3z"/>
	</g>
</g>
<g>
	<g>
		<path fill="#65C8D0" d="M48.8,550c-4.6-2.1-9.3-4.1-13.9-6.2c-0.8-0.3-3,0.9-2.7,1c4.6,2.1,9.3,4.1,13.9,6.2
			C46.9,551.3,49.1,550.1,48.8,550L48.8,550z"/>
	</g>
</g>
</svg>
