<?xml version="1.0" encoding="utf-8"?>
<!-- Generator: Adobe Illustrator 21.1.0, SVG Export Plug-In . SVG Version: 6.00 Build 0)  -->
<svg version="1.1" id="Слой_1" xmlns="http://www.w3.org/2000/svg" xmlns:xlink="http://www.w3.org/1999/xlink" x="0px" y="0px"
	 viewBox="0 0 648.8 597.7" enable-background="new 0 0 648.8 597.7" xml:space="preserve">
<path fill="#4D4D4D" d="M337.9,164.4c0.1,9.9,0.3,19.8,0.4,29.7c0,4.5,0.5,9-0.5,13.4c-2.6,11.6-12.6,19.7-24.7,19.8
	c-26.2,0.2-52.4,0.4-78.6,0.6c-34,0.3-68.1,0.6-102.1,0.8c-15.5,0.1-26.5-10.7-26.6-26.2c-0.4-53.8-0.9-107.7-1.3-161.5
	c-0.1-13.2,7.4-23,19.9-26.1c2-0.5,4.1-0.6,6.2-0.6c59.9-0.5,119.8-1,179.7-1.4c13-0.1,22.9,7.2,25.9,19.1c0.5,1.9,0.8,3.7,0.8,5.7
	c0.3,38,0.6,76,0.9,114.1c0,0.5-0.1,1-0.1,1.5c-3.3,1.4-4.6,3.3-4.3,6.4C333.8,162.3,335.1,163.7,337.9,164.4z M221.9,211.2
	c29.8-0.2,59.6-0.5,89.3-0.7c7.3-0.1,10.3-3.1,10.2-10.4c-0.4-53.4-0.9-106.8-1.2-160.2c0-6.5-4.3-10.1-10.2-10
	c-59.6,0.6-119.3,1-178.9,1.5c-6.5,0.1-9.7,3.3-9.7,9.9c0.4,53.7,0.9,107.3,1.3,161c0.1,6.6,3.3,9.8,9.8,9.7
	C162.4,211.7,192.1,211.4,221.9,211.2z M331.4,167c0.7,0.1,1.7-0.8,2.1,0.3c0.4,1-0.9,0.9-1.4,1.4c-0.5,0.4-0.6,1-0.3,1.6
	c0.4,0.7,1.1,0.7,1.7,0.5c1.8-0.4,3-2.4,2.6-4.2c-0.5-2-1.8-2.6-3.7-2.4c-0.4,0-0.8,0.2-1.2,0.2c-0.5,0.1-1,0-1.3-0.5
	c-0.2-0.6,0.2-0.9,0.7-1.1c0.9-0.3,1.7-0.7,1.1-1.7c-0.6-1.1-1.6-0.9-2.6-0.5c-1.8,0.9-2.5,2.4-2,4.3
	C327.8,166.8,329.5,167.2,331.4,167z"/>
<path fill="#4D4D4D" d="M337.9,164.4c-2.8-0.7-4.2-2.1-4.4-4.6c-0.3-3.1,1-5,4.3-6.4c0,1,0,2,0,3.1c-1.5,0.5-1.9,1.7-1.8,3.1
	c0.1,1.1,0.7,1.8,1.8,1.9C338,162.4,337.9,163.4,337.9,164.4z"/>
<path fill="#4D4D4D" d="M338,161.3c-1.2-0.1-1.8-0.7-1.8-1.9c-0.1-1.4,0.3-2.6,1.8-3.1C337.9,158,338,159.7,338,161.3z"/>
<path fill="#4D4D4D" d="M222,190.2c24.5-0.2,48.9-0.4,73.4-0.6c4.4,0,6.6-2.1,6.6-6.3c-0.2-31.9-0.5-63.9-0.8-95.8
	c0-4.4-2.1-6.3-6.5-6.3c-5,0-10,0.1-15,0.1c-5.7,0-5.7,0-5.8-5.6c-0.1-3.4-1.7-5.1-5.1-5.1c-3,0-6,0-9,0.1c-1.5,0.1-2-0.5-2-2
	c0-4.2-0.1-8.3-0.1-12.5c-0.1-4.3-2.2-6.5-6.5-6.4c-20.2,0.1-40.4,0.3-60.6,0.5c-4.2,0-6.4,2.4-6.4,6.5c0,4.2,0,8.3,0.1,12.5
	c0,1.5-0.4,2.1-2,2c-2.1-0.1-4.2,0-6.2,0c-7.1,0.1-7.7,0.6-7.7,7.9c0,0.2,0,0.5,0,0.7c0.3,1.8-0.6,2.3-2.3,2.2
	c-5.9,0-11.8,0.1-17.7,0.1c-5.5,0.1-7.2,1.8-7.2,7.4c0.3,31.1,0.5,62.2,0.8,93.3c0.1,6.1,1.7,7.7,7.9,7.7
	C173.9,190.6,198,190.4,222,190.2z"/>
<path fill="#4D4D4D" d="M331.4,167c-2,0.2-3.6-0.2-4.2-2.2c-0.6-1.9,0.1-3.4,2-4.3c1-0.5,2-0.7,2.6,0.5c0.5,1-0.3,1.5-1.1,1.7
	c-0.5,0.2-0.9,0.5-0.7,1.1c0.2,0.6,0.7,0.6,1.3,0.5c0.4,0,0.8-0.2,1.2-0.2c1.9-0.2,3.3,0.5,3.7,2.4c0.4,1.8-0.8,3.8-2.6,4.2
	c-0.7,0.2-1.4,0.2-1.7-0.5c-0.3-0.6-0.2-1.1,0.3-1.6c0.5-0.4,1.8-0.4,1.4-1.4C333.2,166.2,332.1,167,331.4,167z"/>
<path fill="#1A1A1A" d="M222,190.2c-24,0.2-48.1,0.4-72.1,0.6c-6.2,0.1-7.9-1.6-7.9-7.7c-0.3-31.1-0.5-62.2-0.8-93.3
	c0-5.6,1.7-7.3,7.2-7.4c5.9-0.1,11.8-0.2,17.7-0.1c1.7,0,2.5-0.5,2.3-2.2c0-0.2,0-0.5,0-0.7c0-7.3,0.6-7.8,7.7-7.9
	c2.1,0,4.2-0.1,6.2,0c1.5,0.1,2-0.5,2-2c-0.1-4.2-0.1-8.3-0.1-12.5c0-4.2,2.2-6.5,6.4-6.5c20.2-0.2,40.4-0.3,60.6-0.5
	c4.3,0,6.4,2.1,6.5,6.4c0.1,4.2,0.2,8.3,0.1,12.5c0,1.5,0.5,2,2,2c3-0.1,6-0.1,9-0.1c3.4,0,5,1.7,5.1,5.1c0.1,5.7,0.1,5.7,5.8,5.6
	c5,0,10-0.1,15-0.1c4.4,0,6.5,1.9,6.5,6.3c0.3,31.9,0.5,63.9,0.8,95.8c0,4.2-2.2,6.3-6.6,6.3C270.9,189.9,246.4,190,222,190.2z
	 M270.6,164.5C270.6,164.5,270.6,164.5,270.6,164.5c0,3,0.1,6,0,9c-0.1,1.6,0.5,2,2,1.9c1.8-0.1,3.7-0.2,5.5,0
	c1.7,0.1,2.3-0.4,2.3-2.2c-0.2-4-0.1-8-0.1-12c0-2.3,0.7-5.5-0.5-6.7c-1.5-1.6-4.7-0.3-7.2-0.5c-1.6-0.1-2.2,0.4-2.1,2.1
	C270.7,158.9,270.6,161.7,270.6,164.5z M258.8,164.9C258.8,164.9,258.8,164.9,258.8,164.9c0-1.2,0.1-2.3,0-3.5
	c-0.2-2.4,1-5.5-0.6-6.9c-1.7-1.4-4.8-0.2-7.3-0.4c-1.4-0.1-1.9,0.4-1.9,1.8c0.1,6,0.2,12,0.2,17.9c0,1.3,0.5,1.7,1.8,1.7
	c2.1-0.1,4.2-0.1,6.2,0c1.5,0.1,1.8-0.6,1.7-1.9C258.8,170.7,258.9,167.8,258.8,164.9z M237.4,165.1c0-1.2,0-2.3,0-3.5
	c-0.2-2.4,1-5.5-0.6-6.9c-1.6-1.4-4.6-0.3-7-0.3c-0.2,0-0.3,0-0.5,0c-1.1-0.1-1.7,0.3-1.6,1.6c0.1,6.1,0.1,12.3,0.2,18.4
	c0,1.1,0.4,1.4,1.5,1.4c2.1-0.1,4.2-0.1,6.2,0c1.5,0.1,2.1-0.4,2-1.9C237.4,170.9,237.4,168,237.4,165.1z M206.2,165.1
	C206.2,165.1,206.2,165.1,206.2,165.1c0,1.1,0,2.2,0,3.2c0.2,2.5-1,5.7,0.6,7.2c1.6,1.4,4.8,0.2,7.2,0.4c1.6,0.1,2-0.5,2-2
	c-0.1-5.8-0.2-11.6-0.1-17.5c0-1.8-0.7-2.1-2.2-2c-1.8,0.1-3.7,0.1-5.5,0c-1.7-0.1-2.1,0.6-2.1,2.2
	C206.2,159.5,206.2,162.3,206.2,165.1z M194.4,165.5C194.4,165.5,194.4,165.5,194.4,165.5c0-3-0.1-6,0-9c0-1.5-0.5-2-2-1.9
	c-2,0.1-4,0.1-6,0.1c-1.2,0-1.8,0.4-1.7,1.7c0.1,6,0.2,12,0.1,17.9c0,1.5,0.5,1.8,1.9,1.8c2-0.1,4-0.1,6,0c1.4,0.1,1.9-0.4,1.8-1.8
	C194.4,171.3,194.4,168.4,194.4,165.5z M173,165.7C173,165.7,173,165.7,173,165.7c0-2.8-0.2-5.7,0-8.5c0.1-1.8-0.4-2.6-2.3-2.4
	c-1.8,0.2-3.7,0.2-5.5,0.1c-1.5-0.1-2,0.5-2,2c0.1,5.8,0.2,11.6,0.2,17.4c0,1.4,0.3,2.1,1.9,2c2-0.1,4-0.1,6,0
	c1.4,0.1,1.9-0.4,1.9-1.9C173,171.5,173,168.6,173,165.7z"/>
<path fill="#FFFFFF" d="M270.6,164.5c0-2.8,0.1-5.7-0.1-8.5c-0.1-1.7,0.6-2.2,2.1-2.1c2.5,0.2,5.6-1.1,7.2,0.5
	c1.2,1.3,0.4,4.4,0.5,6.7c0.1,4,0,8,0.1,12c0.1,1.8-0.5,2.3-2.3,2.2c-1.8-0.1-3.7-0.1-5.5,0c-1.5,0.1-2.1-0.3-2-1.9
	C270.8,170.5,270.7,167.5,270.6,164.5C270.6,164.5,270.6,164.5,270.6,164.5z"/>
<path fill="#FFFFFF" d="M258.8,164.9c0,2.9,0,5.8,0.1,8.7c0,1.3-0.2,2-1.7,1.9c-2.1-0.1-4.2,0-6.2,0c-1.3,0.1-1.8-0.3-1.8-1.7
	c0-6,0-12-0.2-17.9c0-1.5,0.5-1.9,1.9-1.8c2.5,0.1,5.6-1,7.3,0.4c1.6,1.4,0.4,4.5,0.6,6.9C258.9,162.6,258.8,163.8,258.8,164.9
	C258.8,164.9,258.8,164.9,258.8,164.9z"/>
<path fill="#FFFFFF" d="M237.4,165.1c0,2.9,0,5.8,0.1,8.7c0.1,1.6-0.5,2-2,1.9c-2.1-0.1-4.2-0.1-6.2,0c-1.1,0-1.5-0.3-1.5-1.4
	c0-6.1-0.1-12.3-0.2-18.4c0-1.2,0.5-1.6,1.6-1.6c0.2,0,0.3,0,0.5,0c2.4,0.1,5.4-1,7,0.3c1.6,1.4,0.4,4.5,0.6,6.9
	C237.4,162.7,237.4,163.9,237.4,165.1z"/>
<path fill="#FFFFFF" d="M206.2,165.1c0-2.8,0-5.7-0.1-8.5c-0.1-1.6,0.4-2.3,2.1-2.2c1.8,0.1,3.7,0.1,5.5,0c1.5-0.1,2.2,0.3,2.2,2
	c-0.1,5.8,0,11.6,0.1,17.5c0,1.5-0.4,2.1-2,2c-2.5-0.2-5.7,1-7.2-0.4c-1.6-1.4-0.4-4.7-0.6-7.2C206.2,167.3,206.2,166.2,206.2,165.1
	C206.2,165.1,206.2,165.1,206.2,165.1z"/>
<path fill="#FFFFFF" d="M194.4,165.5c0,2.9,0,5.8,0.1,8.7c0.1,1.4-0.5,1.9-1.8,1.8c-2-0.1-4-0.1-6,0c-1.4,0.1-1.9-0.3-1.9-1.8
	c0-6,0-12-0.1-17.9c0-1.3,0.5-1.8,1.7-1.7c2,0,4,0.1,6-0.1c1.5-0.1,2.1,0.4,2,1.9C194.3,159.5,194.4,162.5,194.4,165.5
	C194.4,165.5,194.4,165.5,194.4,165.5z"/>
<path fill="#FFFFFF" d="M173,165.7c0,2.9,0,5.8,0.1,8.7c0.1,1.4-0.5,1.9-1.9,1.9c-2-0.1-4-0.1-6,0c-1.6,0.1-1.9-0.6-1.9-2
	c0-5.8,0-11.6-0.2-17.4c0-1.5,0.4-2.1,2-2c1.8,0.1,3.7,0.1,5.5-0.1c2-0.2,2.4,0.7,2.3,2.4C172.8,160,173,162.9,173,165.7
	C173,165.7,173,165.7,173,165.7z"/>
<g>
	<path fill="#333333" d="M616.1,582.4c-5.6,5.5-5.6,5.5-10.7-0.4c-7.5-8.9-15.2-17.7-22.6-26.7c-1.5-1.8-2.5-1.8-4.1-0.3
		c-2.6,2.4-5.4,4.7-8.2,7c-7.5,6.3-15.5,6.4-23,0.2c-4.8-4-4.8-4-0.2-8c3.9-3.3,7.9-6.7,11.8-10.1c3.3-2.8,3.8-7,1.3-9.9
		c-2.7-3.2-6.8-3.4-10.4-0.4c-5.3,4.5-10.7,9-15.9,13.6c-1.2,1.1-2.1,1.2-3.3,0.1c-4.4-4-8.9-8-13.5-11.9c-1.3-1.2-1.4-1.9,0-3
		c4.6-3.7,9.1-7.6,13.5-11.5c2.9-2.6,3.5-6.2,1.7-9.2c-1.8-2.9-5.4-4-8.5-2.7c-0.8,0.3-1.6,0.9-2.3,1.5c-4.8,4-9.6,8-14.2,12.2
		c-1.8,1.6-3.1,2-4.6-0.1c-0.3-0.4-0.7-0.7-1.1-1c1-1.7,0.6-3.2-0.9-4.3c-1.3-1-2.6-1.3-3.9,0c-0.7-0.3-1.2-0.8-1.5-1.4
		c1.9-0.7,3.7-1.6,5.2-3.1c2.1,1.4,3.5,3.4,5.4,5.1c-1.9-1.6-2.4-4.6-5.4-5c-1.9,0.8-3.9,1.4-5.5,2.7c-0.1-0.1-0.3-0.1-0.4-0.2
		c-3.6-2.6-3.6-2.6-6.9,0.3c-3.2,2.7-6.4,5.5-9.7,8.2c-7.3,6.1-15.9,5.5-22-1.8c-28.2-33-56.3-66.1-84.4-99.2
		c-5.8-6.9-5.1-15.5,1.7-21.5c1.3-1.1,2.6-2.4,4-3.4c1.9-1.3,1.7-2.3,0.3-3.9c-15.1-17.6-30.1-35.3-45.1-53c-5.3-6.2-6.7-13.2-4-21
		c1.2-3.5,3.5-6.4,6.3-8.8c23.4-19.9,46.7-39.8,70.1-59.7c0.1-0.1,3.3-2.3,3.3-2.3c6,6.6,8.6,13,6.5,16c-0.4,0.5-1,1.1-2,1.5
		c-36.8,31.8-63.3,54.5-66.4,56.8c-0.4,0.3-2.1,1.5-2.3,3.3c-0.1,1.1,0.5,2.2,1.7,3.6c7.4,8.7,14.8,17.4,22.2,26
		c0.1,0.1,7,8.3,20.9,24.7c0.1,0.1,2.7,3.2,2.8,3.3c1.4-1.3,2.5-2.2,3.1-2.8c3-2.5,16.1-13.1,20.8-16.4c0.4-0.2,1.3-0.9,1.4-1.9
		c0.1-0.6-0.3-1.2-1-2c-5.6-6.4-11-12.9-16.6-19.3c-1.2-1.4-1.1-2.2,0.3-3.3c7.5-6.3,15-12.7,22.4-19.1c1.3-1.1,2-1.1,3.1,0.2
		c5.5,6.6,11.1,13,16.6,19.6c1.2,1.4,1.9,1.8,3.5,0.4c7.1-6.2,14.2-12.3,21.5-18.3c1.8-1.5,1.7-2.4,0.3-4.1
		c-15.5-18.1-30.9-36.2-46.3-54.3c-2.3-5.5-4.5-11-6.8-16.5c8.5-1.9,15.4,0.7,21,7.2c15,17.6,30,35.2,44.9,52.9
		c1.5,1.8,2.5,1.9,4.1,0.3c1.4-1.4,3-2.7,4.5-3.9c6.3-5,15.1-4.2,20.4,1.9c8,9.3,15.9,18.6,23.8,27.9c20.2,23.8,40.4,47.5,60.7,71.3
		c6.6,7.8,5.9,16.1-1.8,22.7c-3.8,3.2-7.6,6.5-11.4,9.7c-1.2,1-1.3,1.8-0.4,3.1c2.6,3.9,4.9,7.9,7.5,11.8c1.2,1.7,0.8,2.5-0.6,3.6
		c-4.9,4.1-9.8,8.3-14.7,12.4c-3.4,2.9-4,7-1.4,10.1c2.7,3.2,6.8,3.4,10.4,0.4c4.4-3.7,8.8-7.4,13.1-11.2c1.5-1.3,2.2-1.1,3.2,0.5
		c3.1,5.1,6.3,10.2,9.6,15.2c0.9,1.4,0.6,2.1-0.6,3.1c-5.4,4.5-10.8,9.1-16.2,13.7c-3.4,2.9-3.9,7-1.3,10.1c2.5,3,6.7,3.2,10,0.5
		c5-4.2,10-8.3,14.8-12.6c1.3-1.2,2-0.9,2.8,0.5c2.3,3.8,4.9,7.4,5,12c0.1,5-1.5,9.4-5.2,12.7c-3.3,3-6.8,5.9-10.2,8.8
		c-1.4,1.1-1.4,1.9-0.2,3.2c4.5,5.2,8.8,10.4,13.2,15.6c-3.5,5.2-1.5,9.7,4.6,10.8c0.7,0.1,1.4,0.4,2.1,0.7l0,0
		c-1.7,0.4-1.5,1.7-1.3,2.9c0.1,0.6,0.3,1.5-0.5,1.7c-0.8,0.3-1-0.7-1.4-1.2c-0.7-0.9-1.3-1.9-2-2.8c-1.7-2.4-2.6-2.4-4.1,0.2
		c-0.7,1.1-0.8,2.3-0.7,3.6c0.1,1.4,1,2.5,1.7,4.2c-2.6-0.4-4.9-0.7-7.2-1c-0.9-0.1-1.4,0.2-1.5,1.2c-0.1,0.8,0.1,1.5,1,1.7
		c1.1,0.2,2.1,0.4,3.2,0.6c0.9,0.2,1.6,0.5,1.1,1.7C612.8,577.8,613.9,580.3,616.1,582.4z"/>
	<path fill="#333333" d="M616.1,582.4c-2.3-2.1-3.3-4.6-2.1-7.6c0.5-1.2-0.2-1.5-1.1-1.7c-1.1-0.2-2.1-0.4-3.2-0.6
		c-0.9-0.2-1.1-0.9-1-1.7c0.1-0.9,0.6-1.3,1.5-1.2c2.3,0.3,4.5,0.6,7.2,1c-0.7-1.6-1.6-2.7-1.7-4.2c-0.1-1.3,0-2.5,0.7-3.6
		c1.6-2.6,2.4-2.7,4.1-0.2c0.7,0.9,1.3,1.9,2,2.8c0.4,0.5,0.6,1.4,1.4,1.2c0.8-0.2,0.6-1.1,0.5-1.7c-0.2-1.3-0.4-2.5,1.3-2.9
		c1.9,2.7,2,6.3-0.6,8c-2.9,1.9-1.9,3.2-0.2,4.9c-0.8,0.7-1.6,1.3-2.4,2c-0.6-1.4-1.3-2.7-3.1-2.7c-1.3,0-2.3,0.4-2.9,1.6
		c-0.8,1.7-0.2,3,1,4.3c0.2,0.2,0.3,0.4,0.5,0.6C617.4,581.2,616.7,581.8,616.1,582.4z M620,565.3c-0.4-0.1-0.7-1.2-1.3-0.4
		c-0.7,1-0.3,2,0.4,2.9c0.6,0.6,1.5,1.4,2,0.6C621.8,567.3,620.4,566.4,620,565.3z"/>
	<path fill="#333333" d="M624.9,574.9c-1.6-1.7-2.6-3.1,0.2-4.9c2.5-1.6,2.5-5.3,0.6-8c0,0,0,0,0,0c0.9-0.1,1.8-0.1,2.7-0.2
		c0.1,0,0.2,0.1,0.2,0.1c5.7,5.1,5.7,5.1,0,10C627.4,572.9,626.1,573.9,624.9,574.9z"/>
	<path fill="#333333" d="M628.4,561.8c-0.9,0.1-1.8,0.1-2.7,0.2c-0.7-0.2-1.4-0.5-2.1-0.7c-6.1-1-8.1-5.6-4.6-10.8
		c0.7,0.8,1.3,1.6,2,2.4c-1.2,1.4-1.4,3-0.1,4.4c1.1,1.2,2.6,1.3,3.9,0.1C626,558.9,627.2,560.4,628.4,561.8z"/>
	<path fill="#333333" d="M618,580.6c-0.2-0.2-0.3-0.4-0.5-0.6c-1.2-1.2-1.8-2.6-1-4.3c0.6-1.2,1.6-1.6,2.9-1.6
		c1.9,0,2.6,1.3,3.1,2.7C621.2,578.3,619.8,579.7,618,580.6z"/>
	<path fill="#333333" d="M624.8,557.4c-1.3,1.2-2.8,1.2-3.9-0.1c-1.3-1.4-1.1-3,0.1-4.4C622.3,554.5,623.6,556,624.8,557.4z"/>
	<path fill="#333333" d="M497.1,517.6c1.3-1.4,2.7-1.1,3.9,0c1.4,1.2,1.9,2.6,0.9,4.3C500.3,520.4,498.7,519,497.1,517.6z"/>
	<path fill="#333333" d="M500.7,513c-1.4,1.5-3.3,2.4-5.2,3.1c-0.1-0.1-0.2-0.2-0.4-0.4C496.8,514.4,498.8,513.8,500.7,513
		L500.7,513z"/>
	<path fill="#333333" d="M500.7,513c3,0.4,3.5,3.5,5.4,5C504.2,516.4,502.8,514.4,500.7,513C500.7,513,500.7,513,500.7,513z"/>
	<path fill="#333333" d="M620,565.3c0.5,1.1,1.8,2,1.1,3.1c-0.5,0.8-1.5,0-2-0.6c-0.8-0.8-1.2-1.9-0.4-2.9
		C619.2,564.2,619.5,565.3,620,565.3z"/>
	<path fill="#333333" d="M414.8,251.1C414.8,251.1,414.8,251.1,414.8,251.1C414.8,251.1,414.8,251.1,414.8,251.1z"/>
	<path fill="#333333" d="M412,250.9L412,250.9L412,250.9z"/>
	<path fill="#333333" d="M412,250.9c-0.2,0-0.5,0-0.7,0c0,0,0,0,0,0C411.5,250.9,411.8,250.9,412,250.9
		C412,250.9,412,250.9,412,250.9z"/>
	<path fill="#333333" d="M392.9,391.7c-0.7,1.3-2.3,1.4-3.4,2.2c0,0,0,0,0,0c-0.7-1.1-1.6-2.3-0.3-3.5c1.2-1,2.3-0.3,3.2,0.7
		C392.6,391.4,392.8,391.6,392.9,391.7C392.9,391.7,392.9,391.7,392.9,391.7z"/>
	<path fill="#333333" d="M389.5,393.9c0.2,0.3,0.5,0.7,0.2,1.1c-0.3,0.4-0.8,0.3-1.1,0c-0.9-0.8-2-1.6-1.5-3.1l0.1,0
		C387.9,392.7,388.5,393.6,389.5,393.9L389.5,393.9z"/>
	<path fill="#333333" d="M387.2,392c0.1-2.7,1.1-3.6,3.8-3.3c0,0,0,0.1,0,0.1C389.1,389.1,387.9,390.2,387.2,392L387.2,392z"/>
	<path fill="#333333" d="M393.6,392.5c0.3,1.4-0.6,1.9-1.9,2.6C391.8,393.5,392.9,393.2,393.6,392.5
		C393.5,392.5,393.6,392.5,393.6,392.5z"/>
	<path fill="#333333" d="M413.4,265.6c-1.2,0.1-2.1-0.9-2.7-1.9c-2.4-3.5-3.8-7.7-4.2-11.9c0.1-0.1,0.2-0.1,0.2-0.1l0,0
		c0,0,1.8-1.9,2.5-2.6c0.3-0.3,3.2-2.9,7-2.6c4.1,0.3,6.7,4.1,7.7,6.5c0.1,0.3,0.4,1.5,0.7,3.1c0.4,2.9-0.5,5.7-3.4,6.8
		c-1.2,0.4-2.5-0.1-3.7,0.3C416,263.7,414.9,265.5,413.4,265.6z"/>
</g>
<g>
	<path fill="#333333" d="M395.9,420c2.3-6.6,6-12.7,10.7-17.9"/>
	<g>
		<path fill="#1A1A1A" d="M397.3,419.8c2.4-6.6,6-12.5,10.6-17.7c0.8-0.9-2.1-0.7-2.7,0c-4.7,5.4-8.3,11.4-10.8,18.1
			C394.1,421.1,397,420.7,397.3,419.8L397.3,419.8z"/>
	</g>
</g>
<g>
	<path fill="#333333" d="M404.8,436.5c4.3-10.9,10.5-21.1,18.3-29.8"/>
	<g>
		<path fill="#1A1A1A" d="M406.3,436.3c4.4-10.9,10.5-20.8,18.2-29.6c0.8-0.9-2.1-0.7-2.7,0c-7.8,9-13.9,19-18.4,30
			C403.1,437.6,405.9,437.2,406.3,436.3L406.3,436.3z"/>
	</g>
</g>
<g>
	<path fill="#333333" d="M422.9,436.6c2-6.9,5-13.5,9-19.5"/>
	<g>
		<path fill="#1A1A1A" d="M424.4,436.4c2-6.9,5-13.3,8.9-19.3c0.7-1.1-2.2-0.9-2.7-0.1c-4,6.1-7.1,12.7-9.1,19.7
			C421.2,437.8,424.1,437.4,424.4,436.4L424.4,436.4z"/>
	</g>
</g>
<g>
	<path fill="#333333" d="M427.4,463.5c5.5-13.8,12.6-26.8,21.2-38.9"/>
	<g>
		<path fill="#1A1A1A" d="M428.8,463.3c5.5-13.7,12.6-26.6,21.1-38.7c0.7-0.9-2.2-0.6-2.7,0.1c-8.6,12.2-15.8,25.2-21.3,39.1
			C425.6,464.5,428.5,464.2,428.8,463.3L428.8,463.3z"/>
	</g>
</g>
<g>
	<path fill="#333333" d="M443.8,473.9c7.9-12.4,16.7-24.3,26.1-35.6"/>
	<g>
		<path fill="#1A1A1A" d="M445.2,473.9c8-12.4,16.7-24.2,26.1-35.6c0.8-0.9-2.1-0.7-2.7,0c-9.4,11.3-18.1,23.2-26.1,35.6
			C441.8,475,444.7,474.7,445.2,473.9L445.2,473.9z"/>
	</g>
</g>
<g>
	<path fill="#333333" d="M465.1,487.6c2.5-3.5,5-7,7.5-10.5"/>
	<g>
		<path fill="#1A1A1A" d="M466.5,487.7c2.5-3.5,5-7,7.5-10.5c0.8-1.2-2.1-1.1-2.7-0.2c-2.5,3.5-5,7-7.5,10.5
			C462.9,488.7,465.8,488.6,466.5,487.7L466.5,487.7z"/>
	</g>
</g>
<g>
	<path fill="#333333" d="M478.7,508.7c1.5-2.5,2.9-5,4.4-7.6"/>
	<g>
		<path fill="#1A1A1A" d="M480.1,508.4c1.5-2.5,2.9-5,4.4-7.6c0.2-0.4-1-0.2-1.1-0.2c-0.5,0.1-1.4,0.3-1.7,0.8
			c-1.5,2.5-2.9,5-4.4,7.6c-0.2,0.4,1,0.2,1.1,0.2C478.9,509.1,479.8,508.9,480.1,508.4L480.1,508.4z"/>
	</g>
</g>
<g>
	<g>
		<path fill="#1A1A1A" d="M122.1,219.7c0.6,0,3.3-1.1,1.9-1.1C123.4,218.5,120.7,219.7,122.1,219.7L122.1,219.7z"/>
	</g>
</g>
<g>
	<g>
		<g>
			<g>
				<g>
					<path fill="#FF2020" d="M60.9,375.5c-0.3-0.3-0.6,2.6-0.8,3.1C60.8,378.1,61.1,374.8,60.9,375.5z"/>
					<polygon fill="#FF2020" points="67.2,369.9 66.8,371 68.2,368.3 					"/>
					<path fill="#FF2020" d="M71.9,370.9c0.6-5-1.9,0.4-2.4-1.5l0.1-1.2l-1.2,3.9C69.6,371.7,71.5,369.4,71.9,370.9z"/>
					<path fill="#FF2020" d="M72,382c0.3-1.9,0.9-1.5-0.4-0.7c0,0.2,0,0.3,0,0.5C71.6,381.8,71.8,381.8,72,382z"/>
					<path fill="#FF2020" d="M71.5,381.8C71,381.8,71.5,383.4,71.5,381.8L71.5,381.8z"/>
					<path fill="#FF2020" d="M74,381.2l-1,1.5c-0.1,1.1,0.3,1.5-0.1,2.3C73.7,384.3,73.9,383.1,74,381.2z"/>
					<path fill="#FF2020" d="M75.4,377.8l-0.5,0.6C74.9,378.9,74.9,379.1,75.4,377.8z"/>
					<path fill="#FF2020" d="M73.9,379.8l1.1-1.3c0.1-0.8,0.5-2.4-0.5,0.5C74.9,377.5,74.4,378.9,73.9,379.8z"/>
					<path fill="#FF2020" d="M73.7,379c-0.1-1.1-0.4-1.9,0.6-3.4C72.9,375.9,72.3,379.4,73.7,379z"/>
					<path fill="#FF2020" d="M73.3,365.9l-0.2-1.5l-0.8,1.5C72.7,365.2,73,367.5,73.3,365.9z"/>
					<path fill="#FF2020" d="M77.2,384.7c0.3-1,0.5-2.8,0.8-4.1l-0.8,1.1C77.3,382.4,77.5,383.2,77.2,384.7z"/>
					<path fill="#FF2020" d="M78,380.6l1.2-1.6C78.6,378.6,78.3,379.5,78,380.6z"/>
					<polygon fill="#FF2020" points="76.9,372.5 74.8,375.9 77.1,372.5 					"/>
					<polygon fill="#FF2020" points="79.7,385.6 78.6,387.8 80.3,384.4 					"/>
					<path fill="#FF2020" d="M81.5,385.6c-0.9,1.9-0.6,3.4-1.2,4.5c0.6-0.2,1.4-1.8,2.2-3.2C81.9,387.7,81.6,387.4,81.5,385.6z"/>
					<path fill="#FF2020" d="M83.8,385c-0.3,0.4-0.8,1.2-1.3,2C82.9,386.6,83.2,386,83.8,385z"/>
					<path fill="#FF2020" d="M80.2,379.9c-0.1,0.6-0.5,2.3-0.3,3.1l0.5-3C80.4,379.9,80.3,379.9,80.2,379.9z"/>
					<path fill="#FF2020" d="M80.5,379.9L80.5,379.9c0.3,0.2,0.4,0.4,0.5,0.4C80.9,380.2,80.8,380.1,80.5,379.9z"/>
					<path fill="#FF2020" d="M80.1,379.8C80.2,379.8,80.2,379.8,80.1,379.8C80.3,379.6,80.3,379.5,80.1,379.8z"/>
					<path fill="#FF2020" d="M78.1,375.6c0.8-1.5,2.2-3,2-5.7C79.2,371.8,79.4,373.3,78.1,375.6z"/>
					<path fill="#FF2020" d="M80.8,376.1l-0.6-0.9c-0.2,0.8-0.4,1.9-0.8,2.7L80.8,376.1z"/>
					<polygon fill="#FF2020" points="81.4,375.3 80.8,376.1 81,376.4 					"/>
					<path fill="#FF2020" d="M83.4,381.9c0.7-1.2,1.1-1.1,1.5-1.2c-0.2-0.7-0.6-1.1-1-1.2C83.5,380.3,82.9,381.9,83.4,381.9z"/>
					<path fill="#FF2020" d="M82,380.7c0-0.1,0.1-0.1,0.1-0.1C82.2,380.3,82.2,380.2,82,380.7z"/>
					<path fill="#FF2020" d="M88.7,381.9c0-0.2,0.1-0.4,0.1-0.5C88.8,381.5,88.7,381.7,88.7,381.9L88.7,381.9z"/>
					<path fill="#FF2020" d="M84,378.9c-0.2-0.6-0.6,0-1,0.8c0.3-0.2,0.6-0.3,0.9-0.3C84,379,84.1,378.8,84,378.9z"/>
					<path fill="#FF2020" d="M85.2,384c0-0.6,0-1.2-0.1-1.7C85.1,383.2,85,384.7,85.2,384z"/>
					<path fill="#FF2020" d="M82,381.4c0,0-0.1,0.1-0.1,0.1C81.9,382.1,81.9,381.8,82,381.4z"/>
					<path fill="#FF2020" d="M82,381.4c0.3-0.4,0.6-1,0.9-1.6c-0.3,0.2-0.5,0.4-0.8,0.8C82.1,380.7,82.1,381.1,82,381.4z"/>
					<path fill="#FF2020" d="M96,364.1c-0.9,2.6-2.6,4.7-2.5,1.7c-1.4,1.7-3.7,10.6-4.7,15.6c0.4-1.1,0.7-2.2,2-3.5
						c0.2-1.5-0.5-3.9,0.9-6.1c1.5-1,0.5,1.2,0.5,2.7c0.7-3.4,2.9-4.3,4.3-9.2l-1.5,1.4C95.3,365.9,96,364.9,96,364.1z"/>
					<path fill="#FF2020" d="M87.5,380.7l-0.4,0.2c0.2,0.6,0.1,1.7-0.1,3.9c0.9-1.1,1.3-2.1,1.6-2.9l-1.3-0.8L87.5,380.7z"/>
					<path fill="#FF2020" d="M85.8,380.5c1.1-2.8,2.2-3.8,2.8-7.1c-1-0.1-1.4,2.2-2.3,3.3c1.7-0.3-0.9,1.5-0.4,3.4
						c-0.4,0.4-0.7,0.5-1,0.5c0.1,0.4,0.3,0.9,0.3,1.5c0-0.1,0-0.1,0-0.2l0,0c0,0,0,0,0,0c0.1-0.4,0.1-0.6,0.1-0.4c0,0,0,0,0,0
						C85.5,381.2,85.6,380.8,85.8,380.5c0.2,0.7-0.2,0.8-0.4,1.1c-0.1,0.1-0.1,0.3-0.2,0.4c0,0,0,0,0,0l1.9-1.1
						C86.9,380.4,86.5,380.4,85.8,380.5z"/>
					<path fill="#FF2020" d="M82.5,363.8c0,0.3-0.1,0.5-0.1,0.7C82.6,364.2,82.7,363.9,82.5,363.8z"/>
					<path fill="#FF2020" d="M82.7,365.8c-0.2,0.4-0.6,1.5-0.9,1.1c-0.1-1,0.4-1.4,0.6-2.4c-0.4,0.7-1.3,1.9-1,3.5l0.2-0.4
						c0.3,1.2,0.1,5-0.1,5.4C82.1,370.3,82.4,368.4,82.7,365.8z"/>
					<path fill="#FF2020" d="M84.6,372.4l1.7-1.1l0.1-2.7l-0.4,1.5C85.4,369.4,85,371.3,84.6,372.4z"/>
					<polygon fill="#FF2020" points="88.4,383.4 87.2,386.4 89.3,382.3 					"/>
					<polygon fill="#FF2020" points="90,383.5 89.1,386.1 90,384.7 					"/>
					<path fill="#FF2020" d="M190.6,391l0.6-0.6C190.9,390.5,190.7,390.7,190.6,391z"/>
					<path fill="#FF2020" d="M188.1,389.9l-0.5,1.3C187.9,390.5,188.2,390,188.1,389.9z"/>
					<path fill="#FF2020" d="M126.6,399.6c-0.7,2.6-2,6.4-0.6,3.6l1.2-2.8C126.6,400.7,126.5,400.3,126.6,399.6z"/>
					<path fill="#FF2020" d="M161.1,396.5c0.1-0.3,0.1-0.6,0.2-0.9c-0.6,0.9-1.1,1.7-1.5,2.5C160.2,397.6,160.6,397.1,161.1,396.5z"
						/>
					<path fill="#FF2020" d="M166.6,385.2l-0.1,2.1C166.5,386.6,166.6,385.9,166.6,385.2z"/>
					<path fill="#FF2020" d="M205.7,392.5l1.3-2.8C206.4,389.5,206.2,391,205.7,392.5z"/>
					<path fill="#FF2020" d="M105.6,388.4c-0.1,1.3,0.1,1.9,0.3,2.1C106.1,388.7,106.8,386.1,105.6,388.4z"/>
					<path fill="#FF2020" d="M178.9,421.1c0.4-0.4,0.7-1,0.9-1.6C179.5,419.8,179.1,420.3,178.9,421.1z"/>
					<path fill="#FF2020" d="M107.1,391c0.1-0.3,0-0.5,0.1-0.7c-0.5,0.3-1,0.6-1.3,0.2C105.7,391.9,105.8,392.8,107.1,391z"/>
					<path fill="#FF2020" d="M258.1,409c0,0.1,0,0.2,0,0.4C258.2,408.9,258.2,408.9,258.1,409z"/>
					<path fill="#FF2020" d="M270.4,441.3c-0.2,0.2-0.5,0.2-0.8,0.2C269.7,441.8,269.9,441.8,270.4,441.3z"/>
					<path fill="#FF2020" d="M95.5,386.9C95.2,387,95.4,387.2,95.5,386.9L95.5,386.9z"/>
					<path fill="#FF2020" d="M98.2,375.1c0.2-0.3,0.4-0.7,0.6-1.3C98.5,374.4,98.3,374.8,98.2,375.1z"/>
					<path fill="#FF2020" d="M118.2,375.4C118.2,375.4,118.2,375.4,118.2,375.4C118.4,374.8,118.4,374.9,118.2,375.4z"/>
					<path fill="#FF2020" d="M95.6,385.5c0,0.4,0,0.7,0.1,1C95.7,386.2,95.6,385.9,95.6,385.5z"/>
					<path fill="#FF2020" d="M95.1,386.8c-0.1-0.2-0.1-0.3-0.2-0.4C94.7,386.9,94.7,387.2,95.1,386.8z"/>
					<path fill="#FF2020" d="M96,386.9c-0.2,0-0.3-0.2-0.4-0.5c0,0.2,0,0.4-0.1,0.5C95.7,386.9,95.8,386.9,96,386.9z"/>
					<path fill="#FF2020" d="M227.5,409.6c0,0.1,0,0.2,0,0.3C228.1,408.8,227.9,409,227.5,409.6z"/>
					<path fill="#FF2020" d="M149.6,376c0,0-0.1,0.1-0.1,0.1c0,0,0,0.1,0,0.1L149.6,376z"/>
					<path fill="#FF2020" d="M151.8,374.6c-2.2,3.1-2.3,2.6-2.3,1.6l-3.6,8L151.8,374.6z"/>
					<path fill="#FF2020" d="M197,392.2l0-2.9c2.4-3.9,2.6-2.2,3.1-6.1c-3.1,9-3.5-0.1-6.6,8.8l0.1-2.1c0.1,0.1,0.3-0.4,0.5-0.2
						c0.4-4.7-3,6.2-4,4.5c-0.3-0.9-0.1-2.3,0.6-3.2l-1.9,1.9c-0.3-0.3,0.4-1.8,0.6-1.5l-1.9,0.1l0.1-0.3c-0.7,1.3-2,3.3-2.6,4.1
						c0-1.4,0.6-0.9,0.8-2l-1.7,1.8c0.5-2.5,2-4.4,2.5-3.9c2.4-9.2-1.6,2-1.5-3.9l1.3-0.8c1.3-5.3,0-3.7,0.2-7.2
						c-0.4,1.7-1.1,8.6-2.8,10.5c0-0.8-0.3-1.2-1.5,0.4c1.2-3.2,0.4-2.6-0.3-2.6l1.6-4.2c-1.1,1-1.9,3.1-3,4.8
						c-0.6-0.7,0.5-4,1.4-6.8c-1-1.1-1.2,5.5-2.9,5.7c-0.4-2-1.8-0.6-4,1.4c-0.1-1.7,1.1-2.5,1.4-3.8l-2,3.1
						c-0.1-0.1,0.3-1.1,0.6-1.6c-1.1,1.1-1.7,4.1-3,4.9c-2.1,4.5,1-7.4-2.1-2.7c0.2-1.3,1.2-2.5,1.8-4.1c-2.8,2.8-2.2,1.9-5.4,6
						l0.2-3.1c-0.6,3.4-3.2,6.6-5.3,9.2c-0.4,1.6-0.7,3-0.9,3.7l-2.4,1.6c0.1-0.7,0.9-2.1,1.9-3.7c-0.2,0.3-0.5,0.6-0.7,0.9
						c0.2-1.7,1.5-4,2.9-6.1c-0.2,0.9-0.4,1.8-0.7,2.7c1.4-2.3,3-5,4-7.4c-0.3,0.4-0.6,0.8-0.9,0.9c0.4-0.6,0.7-1.2,0.9-1.6
						c0.1-0.4-0.4,0.4-1.1,1.3l1.8-4.7l-0.9,1.8l-0.4-3.6c-3.3,4-7.5,10.2-10.4,11.1c2.1-3.1,2.7-5.3,4.6-9.2
						c-1.5,4.4,2.3-1.1,2.9,0.2c-0.3-0.7,0.7-2.5,1.1-3.1l-3.5,2.9c1.6-3.2,0.8-2.6,1-4.1c-2.7,6.5-3.3,3.6-5,5.1
						c1-2.1,2.2-4.2,2.8-3.3c1.4-5.2-4.9,6.8-3.9,2.3c0.2,0.1,0.2,0.4,0.8-0.6c-1.4,1.6-1.9-0.5-0.7-2.2l0.2,0.1
						c-1-1.5-4.3-2.2-7.3,2.9c0.3-0.7,3.5-6.3,4.1-7.3l-11.8,16.5c2.6-4.4,7.3-15.7,9.8-17.6c0-0.8,0-1.8-1.6-0.6
						c-0.1,0.8-2.8,6.9-3.4,7.1c1.7-5.5,0.8-3,2-7.9c-0.2,1.2-4.3,8.1-4.7,7.5c0.6-1,3.6-7,4.2-7.7l-5,6.3c1-1.1,3.1-5.9,3.9-8
						c-0.6,1.4-1.1-0.8-1.9-0.3l-0.3,1.9c-1-1.9-6.7,9-8,7.8c0.9-1.3,5.1-8.6,4.8-9.9c-2.2,3.4-10.6,16.4-13.3,18.4l0.8-2.2
						l-2.2,1.8c3.4-5.1,11.1-15.4,14.5-19.3c0.2-1.9,1.1-2.5,0.1-2.8c0.7-2.1,2-2.7,2.3-2.6l-1.5-2.3c-2.1,4.2-3.8,3.4-5.5,6.9
						l4.5-3.2c-2.1,4.2-7.4,11.2-8.5,9.7c0.5-1.9,4.1-7.3,4.8-8.7c-0.9,1.3-2.8,2-2.4,0.9l1.8-1.9c0-2-4.2,4.9-3.2,0.4
						c-0.2-0.4,1.7-5.9,0.4-3.5c-1.8,5.1-9.2,20-11.3,23.4c0.1-0.4,0.6-5.5,1.3-8c1.3-4.1,5.3-8.6,6.4-12.1c-0.6,1.1-1.6,2.4-2,2.8
						c0.1-1.2,1.9-3.5,0.9-3.4c-2.2,4.2-1.5-1.2-2.1,3.4c-1.4,0.8-0.4-1.3-1.4-1.5c-1.1,2.9-5.3,9.1-6.7,9.9
						c0.6-1.1,1.1-2.6,1.3-3.3c-1.4-1.1-1.3-3.5-2.8-4.2c0.3-1.1,0.2-2.7,1.3-4.5c-0.6,0.7-1.4,2.1-1.9,2c0.8-4.2,1.3-0.1,2.6-5
						c-1.2,2.5-2.8,3-4.1,4.3c-1.5,4,1.2,1.4,2.6,0.1c-2.4,5.4-6,10.5-8.6,12.4c-1.7,0.8,1-3.7,0.4-3.1c-1.9-1.9-5.8,8.7-6,4.1
						c0.7-3.8,2.7-7,3.6-9.6c1.5-0.9,0.6,2.8,1.4,3l-0.2-2c0.8-1,1.8-1.6,1.8-0.5c0.6-3.4-3.7-2.2-4.4-5.8c-0.8,1.1-1.8,2.1-2.1,3.6
						l0.8-0.3c-0.6,3-2.5,3.5-2.3,5.1c-1.5,1.7-3.5,4.6-3.9,2.6l1.3-4.1c-0.4,1.2-0.2,2.6,0.6,1.5c-1.1,1.6,0.3-6.1-2-0.9l-0.3,3.1
						c-1.5,1.8-3.9,5.7-4.3,4.2c-1,4.1,0.4-0.4-0.6,4.5c1.5-6,2.2,1,3.5-5.4c-1.3,5.7,0.3,2.7-0.5,7.6c0.5-1.3,0.6-2.7,1.1-1.7
						c0.2-0.4,0.4-0.8,0.6-1.1c0,0,0,0.1,0,0.1c0-0.1,0-0.1,0-0.2c0.1-0.2,0.1-0.2,0-0.1c0-0.7,0.2-1.4,0.4-2.2
						c1.5-2.9,2.7-2.4,3.7-3.8c0.2,0.8-0.8,1.4-1.1,3l1.5-2.1c-1.1,3-0.7,5.3-2.4,6.6l0.9,0.5c-0.1,1.9,0.4,2.8,1.3,1.8
						c0.2,0.8,2.4-2.8,1.1-0.7l2.2-1.2l-0.3,0.7c1.2,1,5-3.5,4.3,2.4c0.8-0.5,1.7-1.2,2.1,0l-1,2.5c1-0.6,0.7,3.3,2.1,0.9
						c-2.5,6.9,2.2,2.8,2.8,4.6l1.6-3.2c0.7,0.5,1.8,0,3.4-0.8l1.4-2.8c2-1.9,1.1,3.1,2.5,3.4c-0.6,1-0.8,0.6-0.7-0.2
						c-1.7,7.1,5.6-2.9,4.7,2.4c0.9-0.8,1-0.3,0.8,0.5c0,0-0.1,0-0.2,0.1c0,0,0.1,0.1,0.1,0.1c-0.1,0.6-0.2,1.2-0.3,1.7
						c0.2-0.8,0.4-1.4,0.4-1.7c0.3,0.1,0.9,0,1.7-0.5l-1.4,3.1c0.1,0,0.1,0,0.1,0c-0.2,1.3,1.1-1.2,2-3.6c0.5-0.4,1-0.9,1.5-1.5
						c-2.2,5,1.9-1.1-0.3,4.3c1.6-2.4,3.1-0.8,6-6c-0.3,0.7-0.4,1.1-0.6,1c0.1,0.8,0.3,1.7,1.5,0.4l-1.8,3.9l3.7-4.6
						c-0.6,2.6-1,4.1-3.2,6.7c3.8-3.7,2.1-1.1,5.6-4.9l-1.3,2.4c0.5,0.1,2.9-2.8,2.1-0.6c-1.4,5.2,4.7,3.2,5.2,8.9
						c3-7.6-0.3,3.9,2.5-1.8c-0.7,1.8-0.8,3-1.9,4.3c2.2-1.1,0.8,3.8,4-0.6c-0.6,1.8-1.5,2.4-1.8,3.5c0.3-0.3,1.2-1.3,0.8-0.2
						c-0.3,1.1-0.9,1.4-1.5,2c1.6,0.4,4.2-5,6.6-10c-0.4,2.7,0.1,2.6,2.1-0.6c-0.5,1.8-0.8,3.7-2,3.9c0.4,0.5,2,3.8,3.8-0.3
						c-0.3,1.1,0.6,0.6,0.9,0.2c1,0.7,0.9,1.1,2.2,1.2l0-0.8c2.5-4.8,1.4-0.7,2.5-1l-0.2,0.5c0.6,4.4,1.6-1.4,1.9,3.5l1.1-3.2
						c2.8-6.6,0.2,4.7,2.4,2.5l0.3-1.9c1.5-2.1-1.7,9.8-1.4,10.9c-0.1,0.6-0.6,0.9-0.9,1.2c0.2,4.6,1.8-4,3.4-4.5
						c-0.6,2.3-2.4,5.5-1.7,6.3c-0.2,2,5.2-6.3,4.8-1.6c0.4-1.8,0.7-3.6,1.8-4.7c1.1-0.3,0.1,7.4,2.9,2.2c-0.1,0.5-0.2,1-0.3,1.4
						c1.2-1.2,3.1-1.6,4.5-4.4c-1.5,5.6,0,4.6,1.5,3.5c1.5-1.1,2.9-2.4,1.2,2.7l2.3,0.1l-0.4,1c1.2,1.1,2.4-1.2,3.7-3.5
						c0.1,0.8-0.4,1.7-0.6,2.2c1.3,2.7,1.7,2.3,4.9-2.3l-0.8,3.4c1-1.8,1.3,6.1,4.4,2.8c-0.1,0.4-0.4,1-0.7,1.4
						c3.3-3.2,2.6,10.8,6.9-1.1l2.3-2.6c-1.6-1.5,1.8-5.2,1.6-7.4c0.9-0.5,0.8,4.2-0.2,4.6l0-0.6c-2.1,6.2,1.7,2.9,0.4,7.2
						c3.8,0.7,6.4,5.2,9.8,6.4l0.9-5.1l1.1,0.6c0,1.2-0.6,4-1.4,3.6c-0.3,2.9,2.1-2,2.4-3c1.2,2.4-2.2,5.6-1.7,5.9l0.8-0.2l0-0.6
						c1.1-1.9,1.7-4,2.7-3.5c0.4,1.2-0.5,3.1-0.3,3.4c-0.1,0.4-0.1,0.5,0.4,0.2l1.4,0.8l0.4-4.1c1.2-1.8,1.4,0.6,1.8-4
						c-0.7,7.1,5,3.9,5.1,6.2c1.7-2.6,2.6-2.3,3.6-1.7c-0.1-0.9,0.9-5.3,1.7-4.5c-2.7,9,0.8,4.4-0.1,11.1c0.4-4.5,3.1-0.4,3.5-6.8
						c0.6,0.9-0.8,3.4-0.7,5.7c2.9-3,3.8,3.4,6.7,2.8c0.3-1.2,0.3-3.1,1.3-4.8l0,6.3c0.7-0.5,2-6.8,2-2.5c0.1-1,0.2-2.6,0.6-2.9
						c1.9,3.5,4.9,2.8,7.8,2.6c1.4-0.1,2.8,0,4.2,0.8c1.4,0.8,2.7,2.3,4.2,5.2c-0.7-2.4-0.2-2.6,0.5-2.7c-0.4-0.6,0.1-3,0.1-4.7
						c0.7,1.6,1.5,3.1,2.4,4.7c0.2-2.3,0.9-2.4,1.5-2.5c0.6-0.1,1.3-0.1,1.3-2.3l-0.7,0.8c0.4-2.6-0.1-5.5-0.6-8.6
						c-0.5-3.1-1-6.4-1-9.7c-0.4,3-1,0.8-1.5-1.1c-0.6-1.9-1.1-3.5-2,0.7c-0.2-1.4,0.4-2.1,0.3-3.7c-0.5,2.8-1,3.4-1.6,2.1l0.1-0.7
						c-2.2,0.5-2.9-2.4-4.9-4.7l-0.3,3.3c-0.5-0.5-0.4-1.6-0.5-2.4c-1.5,4.9,1.4,0.5,0,5.9c0.2-3.4-0.8-3.6-1.7-3.9
						c-0.9-0.3-1.8-0.8-1.2-4.5c-0.8-0.2-0.5,3.8-1.4,3.6l0.2-2.1l-0.8,2.6c-0.5-0.6-0.2-3.1,0.2-4.9c0.1,0.2,0.5-0.4,0.6-0.5
						c-0.2-2.5-2.2,0.4-2.2-0.5l0.5,1.4c-2.7,1.4-5-2-8.5,1.5l-0.2,1.6c-2.5,2.3-1.1-2-3.4-1.3l0.2-0.3c-0.8,1.4-1.5,2-2,1.7
						c1-1.6-0.1-3.7,1.1-5.5c-2.8,2.5-1.6,2.1-4.3,7.4l0.3-2.6c-1,2.2-1.4,3.4-2.6,3.7c1.4-1.9,0.3-4,2-6.6c-0.7-6-4.6,4.7-3.5-3.5
						c-2.8,6.7,0.8,4.3-0.1,5.7c-0.1,2.4-2.1,5-2.6,4.1c-0.6-0.3,1.1-9.2-0.6-9.5c0.2,0.1,0.3-0.4,0.5-0.4c-0.2-1.9-1.9,2.1-1.9-1
						c-1.5,4.1-0.9-0.5-2.5,4.8l1.9-0.8c-1.2,1.2-3.7,7.2-4.4,3.8c0.4-1,1.2-2.4,1.7-3.1c0-1.7-1.1,0.8-1.1-0.9
						c1.5-5.3,2.2-0.7,4.2-4.5c0.1-2.4-2.8,3.4-0.8-2.3c-2.6,7.2-1.4-1.4-4,4l0.9-3.2c-0.3,0.5-1.1,1.9-1.4,1.7l1.7-4
						c-1.9,3.3-0.9-3.6-2.3-1.9c1.9,0.4-0.6,4-0.5,6.5c-3.4,3.7,0.9-8.7-2-7.9c0.5-0.4,0.8,2.3-0.2,3.6c-0.3-0.8-0.6-2.2-0.4-4
						c-1.9,0.2-0.6,3.4-1.9,5.1c0.5-4.1-1.3,1.4-2.3,2.4l0.9-3.3c-1.3-2.6-2.4,6.6-3.4,3.6l2-4.3l-1.2,0.9l1.2-3.6
						c-1.7,2.5-1.8,1.7-2.5,0.4c-0.4,2.3-1.8,5.9-2.7,5.7c0-2.1,1.2-3-0.1-2.9c0.9-2,1.9-4.4,1.5-1.3c0.4-1,0.8-2,1.2-3
						c0-2.4-1.4-0.9-1.8-1c0.1,0.2,0.3,0.4,0.2,0.9l-3,4c0.1-1.3,0.6-2.2,1.1-3.1c-0.5,0.3-1.1,1.7-1.7,1.8c0.9-2.6,1.7-5.3,2.7-6.4
						l-2.5,2.4c0.2-1.2,0.1-3.4,0.6-4.3c-0.4-1.8-3.7,4.5-4.3,2.1c-0.2,0.5-0.5,0.9-0.9,1.2c-0.9-0.9-0.9-4.5-3.4-1.3l0.7-4.9
						c-1.4,0.7-0.9,6.2-3.1,7.5c-1.7,1.1,0.8-4.1,0.8-5.6c-1.3,2.2-4,6.6-3.8,2.5C196.5,391.7,196.6,392.4,197,392.2z M183.8,389.9
						c0.5-0.6,1.7-2.5,1.2-0.5C183.4,392.9,183.8,391.1,183.8,389.9z M161.9,389.7c0.6-0.9,0.7-0.3,0.5,1
						C162,390.9,161.8,390.7,161.9,389.7z M100,385.7c0-0.1,0.1-0.1,0.1-0.1C100.1,387,100.1,386.4,100,385.7z M99.5,383.9
						c-0.3,0.4-0.4,0.8-0.6,1.3c0.4-0.8,0.6-0.7,0.8-0.4C100,384,100.1,383.3,99.5,383.9z M225.5,432.6l0-0.9
						C226.3,430.9,225.9,431.7,225.5,432.6z"/>
					<path fill="#FF2020" d="M165.9,386.5c-0.2,0.6-0.4,1.1-0.6,1.7C165.6,387.7,165.9,387.1,165.9,386.5z"/>
					<path fill="#FF2020" d="M205.5,393C205.5,393,205.5,393,205.5,393c0.1-0.1,0.2-0.3,0.2-0.5L205.5,393z"/>
					<path fill="#FF2020" d="M128.6,365.6c0,0.6-0.1,1.2-0.3,1.8C128.7,366.6,128.9,365.9,128.6,365.6z"/>
					<path fill="#FF2020" d="M91.8,387.2l1-0.6c-0.4,0-0.3-0.7-0.2-1.3C92.3,386.1,92,387.2,91.8,387.2z"/>
					<path fill="#FF2020" d="M92.2,365.3c-0.2,0.4-0.2,0-0.5,0.3l-0.4,1.5C91.8,367.2,92.5,366.1,92.2,365.3z"/>
					<path fill="#FF2020" d="M94.9,376.4c0.9-2.7,0.1-1.9-0.6-1.6c0,0,0.1,0,0.1,0C92.9,378.5,93.9,377.4,94.9,376.4z"/>
					<path fill="#FF2020" d="M94.2,374.8c-0.2,0.1-0.4,0.1-0.5-0.1C93.1,376.2,93.7,375.1,94.2,374.8z"/>
					<path fill="#FF2020" d="M97.4,385.1c0-0.8-1.4,3.3-1.2,2.2C94.7,390.6,99.3,383.8,97.4,385.1z"/>
					<polygon fill="#FF2020" points="97.5,367.4 96.6,370.8 97.8,368.2 					"/>
					<path fill="#FF2020" d="M100.8,371.3l-0.5-1.2c-0.2,0.6-0.4,0.8-0.6,1C100.2,371.4,100.5,372.3,100.8,371.3z"/>
					<path fill="#FF2020" d="M99.7,371.1c-0.2-0.2-0.5-0.2-0.9,0.3C99,371.4,99.3,371.4,99.7,371.1z"/>
					<polygon fill="#FF2020" points="99.1,366.8 99.1,367.6 99.6,368 					"/>
					<path fill="#FF2020" d="M109.4,375.4l1.3-0.5c0.6-1.1,0.6-1.8,0.1-1.5C110.2,374,109.7,374.3,109.4,375.4z"/>
					<path fill="#FF2020" d="M110.3,365.4c0,0.8-0.3,1.5-0.6,2.6l1.7-4L110.3,365.4z"/>
					<path fill="#FF2020" d="M113.4,365.6c0.6-1.1,2.7-2.6,1.4-2.9C114.3,363.8,113,364.3,113.4,365.6z"/>
					<polygon fill="#FF2020" points="124.7,376.9 124.5,376.9 121.3,383.3 					"/>
					<path fill="#FF2020" d="M144.2,367.7c-0.2-2.1-2.3,3.8-2.2,1.4c-1,1.4,0,1.9-1,3.1C142.4,371,142.3,372,144.2,367.7z"/>
					<path fill="#FF2020" d="M141,372.2c-0.2,0.2-0.5,0.4-0.8,0.8C140.5,372.7,140.8,372.5,141,372.2z"/>
					<polygon fill="#FF2020" points="273.9,445.2 274.9,446.6 274.2,444.3 					"/>
					<path fill="#FF2020" d="M275.5,439.8l0.5,4.5l0.3-4.1C276.1,440.4,275.7,440.8,275.5,439.8z"/>
					<path fill="#FF2020" d="M185.1,380.7l-0.4,1c-0.3,1.1-0.2,1.3,0,1.6L185.1,380.7z"/>
					<polygon fill="#FF2020" points="192.9,387 192.7,386.9 191.7,390.9 					"/>
					<path fill="#FF2020" d="M202.1,384.6c-0.3-0.3-0.9,0.5-1.2,0.2C201.8,384.3,200.6,389.5,202.1,384.6z"/>
				</g>
			</g>
		</g>
	</g>
</g>
<g>
	<g>
		<g>
			<g>
				<g>
					<path fill="#FF2020" d="M149,521.2c-0.4,0.2,2.3,1.4,2.7,1.7C151.4,522.1,148.3,520.8,149,521.2z"/>
					<polygon fill="#FF2020" points="145.5,513.5 146.5,514.1 144.3,512.1 					"/>
					<path fill="#FF2020" d="M147.8,509.2c-4.7-1.9-0.1,1.9-2.1,1.9l-1.1-0.4l3.4,2.2C147.9,511.6,146.2,509.2,147.8,509.2z"/>
					<path fill="#FF2020" d="M158.6,511.8c-1.8-0.7-1.2-1.3-0.8,0.3c0.2,0,0.3,0.1,0.5,0.1C158.3,512.1,158.3,512,158.6,511.8z"/>
					<path fill="#FF2020" d="M158.2,512.2C158.1,512.7,159.8,512.7,158.2,512.2L158.2,512.2z"/>
					<path fill="#FF2020" d="M158.3,509.6l1.2,1.4c1.1,0.4,1.6,0,2.2,0.6C161.3,510.5,160.2,510.1,158.3,509.6z"/>
					<path fill="#FF2020" d="M155.4,507.3l0.5,0.6C156.3,508.2,156.5,508.2,155.4,507.3z"/>
					<path fill="#FF2020" d="M156.9,509.4l-1-1.4c-0.8-0.3-2.2-1,0.3,0.6C154.9,507.8,156.1,508.6,156.9,509.4z"/>
					<path fill="#FF2020" d="M156.1,509.4c-1.1-0.2-2,0-3.2-1.4C152.9,509.4,156.1,510.9,156.1,509.4z"/>
					<path fill="#FF2020" d="M143.3,506.6l-1.5-0.2l1.3,1.2C142.4,507,144.7,507.3,143.3,506.6z"/>
					<path fill="#FF2020" d="M162.6,507c-0.9-0.5-2.6-1.1-3.9-1.7l0.9,1C160.3,506.4,161.1,506.3,162.6,507z"/>
					<path fill="#FF2020" d="M158.7,505.3l-1.3-1.5C156.9,504.3,157.6,504.8,158.7,505.3z"/>
					<polygon fill="#FF2020" points="150.5,504.7 153.4,507.6 150.6,504.5 					"/>
					<polygon fill="#FF2020" points="164,504.5 166,506 163,503.6 					"/>
					<path fill="#FF2020" d="M164.5,502.6c1.7,1.2,3.3,1.2,4.2,2c-0.1-0.6-1.5-1.8-2.7-2.9C166.6,502.5,166.2,502.8,164.5,502.6z"/>
					<path fill="#FF2020" d="M164.3,500.1c0.3,0.4,1,1,1.7,1.6C165.7,501.4,165.2,500.9,164.3,500.1z"/>
					<path fill="#FF2020" d="M158.5,502.9c0.6,0.2,2.1,0.9,3,0.8l-2.8-1.1C158.6,502.8,158.5,502.9,158.5,502.9z"/>
					<path fill="#FF2020" d="M158.5,502.7L158.5,502.7c0.3-0.2,0.5-0.4,0.5-0.5C159,502.3,158.8,502.4,158.5,502.7z"/>
					<path fill="#FF2020" d="M158.4,503C158.4,503,158.4,503,158.4,503C158.2,502.8,158.1,502.8,158.4,503z"/>
					<path fill="#FF2020" d="M153.8,504.2c-1.3-1.2-2.5-2.8-5.1-3.2C150.3,502.3,151.9,502.5,153.8,504.2z"/>
					<path fill="#FF2020" d="M154.9,501.6l-1,0.4c0.7,0.3,1.8,0.7,2.4,1.3L154.9,501.6z"/>
					<polygon fill="#FF2020" points="154.2,500.9 154.9,501.6 155.3,501.5 					"/>
					<path fill="#FF2020" d="M161.2,500.1c-1-0.9-0.9-1.3-0.9-1.7c-0.7,0.1-1.2,0.4-1.4,0.8C159.6,499.6,161,500.6,161.2,500.1z"/>
					<path fill="#FF2020" d="M159.6,501.2c-0.1-0.1-0.1-0.1-0.1-0.1C159.3,501,159.2,501,159.6,501.2z"/>
					<path fill="#FF2020" d="M162.1,494.6c-0.2-0.1-0.3-0.1-0.5-0.2C161.8,494.5,161.9,494.6,162.1,494.6L162.1,494.6z"/>
					<path fill="#FF2020" d="M158.3,499c-0.7,0-0.1,0.6,0.6,1.1c-0.1-0.4-0.2-0.7-0.1-1C158.4,498.9,158.2,498.8,158.3,499z"/>
					<path fill="#FF2020" d="M163.5,498.5c-0.6-0.1-1.2-0.2-1.7-0.2C162.7,498.5,164.2,498.9,163.5,498.5z"/>
					<path fill="#FF2020" d="M160.3,501.4c0,0,0.1,0.1,0.1,0.1C161,501.6,160.8,501.5,160.3,501.4z"/>
					<path fill="#FF2020" d="M160.3,501.4c-0.3-0.4-0.9-0.8-1.4-1.2c0.1,0.3,0.3,0.6,0.6,1C159.7,501.1,160,501.3,160.3,501.4z"/>
					<path fill="#FF2020" d="M145.5,484.9c2.5,1.3,4.3,3.2,1.3,2.6c1.5,1.6,9.9,5.3,14.7,7c-1.1-0.6-2.1-1.1-3.2-2.5
						c-1.5-0.4-3.9,0-5.9-1.8c-0.8-1.6,1.3-0.3,2.8-0.1c-3.3-1.2-3.9-3.4-8.5-5.5l1.2,1.6C147.3,485.8,146.3,485,145.5,484.9z"/>
					<path fill="#FF2020" d="M160.7,495.7l0.2,0.4c0.6-0.1,1.7,0.2,3.9,0.7c-1-1.1-1.8-1.7-2.6-2.1l-1.1,1.2L160.7,495.7z"/>
					<path fill="#FF2020" d="M160.2,497.4c-2.6-1.6-3.4-2.9-6.5-3.9c-0.2,0.9,2,1.7,2.9,2.8c0-1.7,1.3,1.1,3.3,0.9
						c0.3,0.5,0.3,0.8,0.3,1.1c0.4-0.1,1-0.1,1.6-0.1c-0.1,0-0.1,0-0.2-0.1l0,0c0,0,0,0,0,0c-0.4-0.1-0.6-0.2-0.4-0.2c0,0,0,0,0-0.1
						C160.8,497.8,160.5,497.6,160.2,497.4c0.8-0.1,0.7,0.3,1,0.6c0.1,0.1,0.3,0.1,0.4,0.2c0,0,0,0,0,0l-0.8-2.1
						C160.3,496.2,160.2,496.6,160.2,497.4z"/>
					<path fill="#FF2020" d="M143.2,497.4c0.3,0.1,0.4,0.2,0.6,0.3C143.6,497.4,143.4,497.3,143.2,497.4z"/>
					<path fill="#FF2020" d="M145.1,497.7c0.3,0.3,1.4,0.9,0.9,1.1c-0.9-0.1-1.3-0.7-2.2-1.1c0.6,0.6,1.6,1.7,3.2,1.7l-0.3-0.3
						c1.2-0.1,4.9,0.9,5.2,1.2C149.5,499.2,147.7,498.5,145.1,497.7z"/>
					<path fill="#FF2020" d="M152,497.1l-0.7-1.8l-2.6-0.6l1.4,0.7C149.2,495.8,151,496.5,152,497.1z"/>
					<polygon fill="#FF2020" points="163.5,495.2 166.3,496.8 162.6,494.1 					"/>
					<polygon fill="#FF2020" points="163.9,493.5 166.4,494.8 165.1,493.7 					"/>
					<path fill="#FF2020" d="M172.5,394.9l-0.6-0.7C172,394.5,172.2,394.7,172.5,394.9z"/>
					<path fill="#FF2020" d="M171.2,397.3l1.2,0.6C171.8,397.5,171.3,397.2,171.2,397.3z"/>
					<path fill="#FF2020" d="M181.5,456.8c2.6,0.6,6.5,1.8,3.6,0.5l-2.8-1.2C182.7,456.7,182.2,456.8,181.5,456.8z"/>
					<path fill="#FF2020" d="M176.8,423.9c-0.3-0.1-0.6-0.2-0.9-0.2c0.9,0.6,1.7,1.1,2.5,1.5C178,424.8,177.4,424.4,176.8,423.9z"/>
					<path fill="#FF2020" d="M165.6,418.4l2.1,0.2C167,418.4,166.3,418.3,165.6,418.4z"/>
					<path fill="#FF2020" d="M175.4,380.3l-2.7-1.6C172.4,379.3,174,379.6,175.4,380.3z"/>
					<path fill="#FF2020" d="M170.5,477.8c1.3,0.1,1.9,0,2.2-0.2C170.8,477.3,168.3,476.6,170.5,477.8z"/>
					<path fill="#FF2020" d="M201.5,409c-0.4-0.4-0.9-0.8-1.6-1C200.3,408.4,200.8,408.7,201.5,409z"/>
					<path fill="#FF2020" d="M173.2,476.3c-0.3-0.1-0.5-0.1-0.8-0.1c0.3,0.5,0.5,1,0.2,1.3C174,477.7,174.9,477.7,173.2,476.3z"/>
					<path fill="#FF2020" d="M198.1,332.6c0.1,0,0.2,0,0.4,0C198.1,332.4,198,332.5,198.1,332.6z"/>
					<path fill="#FF2020" d="M232.3,329.5c0.1,0.2,0,0.4,0,0.7C232.5,330.1,232.5,329.9,232.3,329.5z"/>
					<path fill="#FF2020" d="M168.1,488.1C168.1,488.5,168.4,488.3,168.1,488.1L168.1,488.1z"/>
					<path fill="#FF2020" d="M156.6,484.3c-0.3-0.2-0.6-0.5-1.3-0.8C156,483.9,156.4,484.1,156.6,484.3z"/>
					<path fill="#FF2020" d="M157.8,464.9C157.8,464.9,157.8,464.9,157.8,464.9C157.2,464.7,157.3,464.7,157.8,464.9z"/>
					<path fill="#FF2020" d="M166.6,488c0.4,0,0.7,0.1,1,0C167.4,488,167.1,487.9,166.6,488z"/>
					<path fill="#FF2020" d="M167.9,488.6c-0.2,0-0.3,0.1-0.4,0.1C168,489,168.3,489.1,167.9,488.6z"/>
					<path fill="#FF2020" d="M168.2,487.6c0,0.2-0.3,0.3-0.5,0.4c0.2,0,0.4,0.1,0.5,0.1C168.1,488,168.1,487.9,168.2,487.6z"/>
					<path fill="#FF2020" d="M194.8,361.9c0.1,0,0.2,0,0.3,0C194.1,361.1,194.2,361.3,194.8,361.9z"/>
					<path fill="#FF2020" d="M156.9,435.1c0,0,0.1,0.1,0.1,0.1c0,0,0.1,0,0.1,0L156.9,435.1z"/>
					<path fill="#FF2020" d="M155.4,433c3.2,2.1,2.6,2.2,1.8,2.2l8.1,3.3L155.4,433z"/>
					<path fill="#FF2020" d="M174.2,388.7l-2.9-0.3c-3.7-2.8-2-2.8-5.8-3.6c8.7,3.9-0.5,3.5,8.2,7.4l-2.1-0.3
						c0.1-0.1-0.3-0.4-0.2-0.5c-4.6-0.8,5.9,3.5,4.1,4.3c-0.9,0.2-2.3-0.1-3.2-0.8l1.7,2c-0.3,0.2-1.8-0.5-1.5-0.7l0,1.9l-0.2-0.1
						c1.3,0.8,3.1,2.3,3.9,2.9c-1.4-0.2-0.8-0.6-2-1l1.7,1.8c-2.4-0.7-4.3-2.3-3.7-2.8c-9-3.1,1.9,1.7-4,1.2l-0.7-1.3
						c-5.2-1.7-3.7-0.2-7.1-0.7c1.7,0.5,8.6,1.6,10.3,3.5c-0.8,0-1.2,0.2,0.3,1.5c-3.1-1.4-2.6-0.5-2.7,0.1l-4.1-1.9
						c0.9,1.2,3,2.1,4.6,3.3c-0.7,0.6-4-0.7-6.7-1.7c-1.2,0.9,5.4,1.5,5.6,3.2c-2,0.3-0.7,1.7,1.3,4c-1.7,0.1-2.4-1.3-3.7-1.5l3,2.1
						c-0.1,0.1-1.1-0.4-1.6-0.6c1,1.1,4.1,1.9,4.8,3.2c4.4,2.3-7.3-1.3-2.7,2c-1.3-0.3-2.4-1.3-4.1-1.9c2.7,2.9,1.9,2.3,5.9,5.5
						l-3.1-0.3c3.4,0.7,6.6,3.3,9.2,5.4c1.6,0.4,3,0.8,3.7,0.9l1.6,2.3c-0.7-0.2-2.1-0.9-3.7-1.9c0.3,0.2,0.6,0.5,0.9,0.7
						c-1.7-0.2-4-1.6-6.1-2.9c0.9,0.2,1.8,0.5,2.7,0.7c-2.3-1.4-4.9-3-7.3-4c0.4,0.3,0.8,0.6,0.9,0.9c-0.6-0.4-1.2-0.7-1.6-0.9
						c-0.4-0.2,0.4,0.4,1.3,1.1l-4.7-1.8l1.8,0.9l-3.6,0.4c4,3.3,10.3,7.4,11.3,10.2c-3.1-2-5.4-2.6-9.3-4.5
						c4.4,1.4-1.1-2.3,0.2-2.9c-0.7,0.3-2.5-0.7-3.1-1.1l3,3.5c-3.2-1.5-2.6-0.7-4.1-0.9c6.5,2.6,3.6,3.3,5.3,4.9
						c-2.2-0.9-4.3-2.1-3.3-2.7c-5.2-1.3,6.9,4.7,2.4,3.7c0-0.2,0.4-0.2-0.6-0.8c1.7,1.4-0.4,1.9-2.1,0.7l0.1-0.2
						c-1.4,1-2,4.2,3.3,7c-0.7-0.3-6.4-3.2-7.5-3.8l17,11c-4.5-2.4-15.9-6.7-18-9.1c-0.8,0-1.8,0.1-0.5,1.5c0.8,0.1,7,2.6,7.2,3.1
						c-5.6-1.6-3-0.7-7.9-1.7c1.1,0.1,8.2,3.9,7.7,4.4c-1-0.6-7.2-3.3-7.8-3.9l6.5,4.7c-1.1-0.9-6-2.9-8.2-3.6
						c1.5,0.5-0.7,1.1-0.1,1.8l1.9,0.2c-1.8,1,9.3,6.2,8.2,7.6c-1.4-0.9-8.8-4.7-10.1-4.4c3.5,2.1,16.8,9.9,18.9,12.6l-2.2-0.7
						l1.9,2.2c-5.2-3.3-15.8-10.5-19.9-13.6c-1.9-0.2-2.5-1-2.7-0.1c-2.1-0.6-2.7-1.9-2.7-2.2l-2.2,1.4c4.3,1.9,3.5,3.5,7.1,5.2
						l-3.4-4.2c4.3,1.9,11.5,7,10,8c-1.9-0.5-7.4-3.9-8.9-4.5c1.4,0.9,2.2,2.7,1.1,2.3l-2-1.7c-2,0,5,4,0.5,2.9
						c-0.4,0.2-5.9-1.7-3.4-0.4c5.1,1.8,20.1,8.9,23.6,11c-0.4,0-5.4-0.5-8-1.3c-4-1.3-8.7-5.2-12.1-6.3c1.1,0.6,2.4,1.6,2.8,1.9
						c-1.2-0.1-3.5-1.9-3.3-0.9c4.2,2.2-1.1,1.3,3.5,2.1c0.9,1.3-1.3,0.3-1.5,1.3c2.9,1.1,9.1,5.3,9.9,6.7c-1.1-0.6-2.6-1.1-3.3-1.3
						c-1.1,1.3-3.4,1.1-4.1,2.5c-1.1-0.4-2.7-0.3-4.4-1.5c0.7,0.6,2,1.5,1.9,1.9c-4.1-1-0.1-1.2-4.9-2.8c2.5,1.3,2.9,2.8,4.2,4.1
						c3.9,1.7,1.4-1,0.2-2.4c5.3,2.6,10.3,6.4,12.1,9c0.8,1.8-3.7-1.2-3-0.6c-2,1.7,8.4,6.4,3.7,6.3c-3.7-1-6.7-3.3-9.2-4.3
						c-0.8-1.6,2.8-0.4,3-1.1l-2,0c-1-0.9-1.5-1.9-0.4-1.7c-3.3-0.9-2.3,3.3-6,3.6c1,0.8,1.9,1.9,3.4,2.4l-0.2-0.8
						c3,0.9,3.3,2.8,4.9,2.8c1.6,1.6,4.2,3.9,2.1,4.2l-3.9-1.7c1.1,0.5,2.6,0.5,1.6-0.4c1.5,1.3-6-1.1-1.1,1.9l3,0.6
						c1.6,1.7,5.2,4.6,3.6,4.8c4,1.5-0.3-0.4,4.4,1.2c-5.8-2.2,1.4-2.1-4.9-4.2c5.5,1.9,2.7,0,7.5,1.3c-1.3-0.6-2.6-0.9-1.6-1.3
						c-0.4-0.2-0.8-0.5-1-0.7c0,0,0.1,0,0.1,0c-0.1,0-0.1,0-0.2,0c-0.2-0.1-0.2-0.1-0.1,0c-0.6-0.1-1.4-0.3-2.1-0.6
						c-2.7-1.8-2.1-2.9-3.4-4.1c0.8-0.1,1.4,0.9,2.8,1.3l-2-1.7c2.8,1.3,5.3,1.2,6.4,3l0.6-0.9c1.8,0.2,2.8-0.2,1.9-1.3
						c0.8-0.1-2.6-2.6-0.6-1.2l-1-2.3l0.7,0.3c1.1-1.3-3.2-5.3,2.7-4.4c-0.5-0.8-1.1-1.8,0.1-2.2l2.5,1c-0.5-1,3.4-0.7,0.9-2.2
						c6.9,2.5,2.9-2.3,4.6-2.9l-3.2-1.6c0.5-0.7,0-1.8-0.8-3.4l-2.9-1.3c-1.9-1.9,3-1.1,3.3-2.5c1,0.6,0.6,0.8-0.2,0.7
						c7.1,1.5-3.1-5.5,2.2-4.6c-0.9-0.8-0.4-0.9,0.4-0.8c0,0,0,0.1,0.1,0.2c0,0,0.1-0.1,0.1-0.1c0.6,0.1,1.2,0.2,1.7,0.2
						c-0.8-0.2-1.4-0.3-1.7-0.3c0.1-0.3-0.1-0.9-0.6-1.6l3.1,1.3c0-0.1,0-0.1,0-0.1c1.3,0.1-1.3-1-3.7-1.9c-0.4-0.4-0.9-0.9-1.6-1.4
						c5.1,2-1.2-1.8,4.3,0.2c-2.4-1.5-1-2.9-6.3-5.7c0.7,0.3,1.1,0.4,1,0.6c0.8-0.2,1.6-0.3,0.3-1.4l4,1.6l-4.8-3.4
						c2.6,0.5,4.1,0.9,6.8,2.9c-3.9-3.6-1.2-2-5.2-5.3l2.5,1.2c0.1-0.5-2.9-2.7-0.7-2c5.2,1.3,2.9-4.4,8.5-4.8
						c-7.6-3,3.8,0.4-1.8-2.4c1.8,0.7,3,0.8,4.3,1.9c-1.1-2.1,3.7-0.6-0.8-3.7c1.8,0.7,2.4,1.5,3.5,1.8c-0.3-0.3-1.3-1.1-0.2-0.8
						c1.1,0.4,1.4,0.9,2.1,1.4c0.3-1.4-5-4-10.1-6.5c2.7,0.5,2.5,0-0.6-2c1.8,0.5,3.7,1,3.9,2c0.4-0.3,3.7-1.6-0.4-3.5
						c1.1,0.3,0.6-0.5,0.2-0.8c0.7-0.9,1.1-0.8,1.2-2l-0.8,0c-4.7-2.6-0.7-1.3-1-2.4l0.5,0.2c4.4-0.2-1.3-1.6,3.5-1.5l-3.1-1.3
						c-6.5-3.1,4.6,0.2,2.6-2l-1.9-0.4c-2-1.6,9.7,2.4,10.8,2.2c0.6,0.1,0.8,0.6,1.2,1c4.6,0.2-3.9-2-4.3-3.5
						c2.3,0.8,5.4,2.7,6.1,2.2c1.9,0.4-6-5.3-1.4-4.5c-1.8-0.5-3.5-1-4.6-2.1c-0.2-1.1,7.3,0.6,2.3-2.4c0.5,0.1,1,0.3,1.4,0.4
						c-1.1-1.2-1.4-3-4.1-4.6c10.9,4.1-3.5-6.1,6.3-1.8l0.3-2.1l1,0.5c1.2-0.9-1-2.4-3.2-3.8c0.8,0,1.6,0.6,2.1,0.9
						c2.7-0.9,2.4-1.3-1.8-4.9l3.3,1.2c-1.7-1.2,6.1-0.4,3.1-3.7c0.4,0.2,1,0.5,1.3,0.8c-2.9-3.6,10.9-0.9-0.4-6.6l-2.3-2.5
						c-1.6,1.3-4.9-2.4-7.2-2.5c-0.4-0.9,4.2-0.2,4.5,0.9l-0.6-0.1c5.9,2.9,3-1.2,7.1,0.6c1.1-3.4,5.8-5.2,7.4-8.2l-4.9-1.6l0.7-1
						c1.2,0.2,3.9,1.2,3.3,1.9c2.8,0.7-1.7-2.2-2.7-2.7c2.5-0.7,5.3,2.9,5.6,2.5l-0.1-0.8l-0.6-0.1c-1.7-1.3-3.7-2.2-3.1-3
						c1.2-0.2,3,0.9,3.3,0.8c0.3,0.1,0.5,0.1,0.3-0.3l1-1.2l-4-1c-1.6-1.4,0.7-1.2-3.8-2.3c6.9,1.8,4.5-4.1,6.7-3.8
						c-2.4-2-2-2.8-1.2-3.7c-0.9-0.1-5.2-1.6-4.3-2.3c8.5,3.9,4.4-0.1,11,1.8c-4.4-1.1,0-3-6.3-4.3c1-0.5,3.3,1.3,5.5,1.6
						c-2.6-3.1,3.8-3,3.5-5.7c-1.1-0.5-3-0.8-4.5-2l6.2,1.1c-0.4-0.7-6.4-3.1-2.2-2.3c-1-0.3-2.5-0.7-2.8-1.1
						c7.3-2.1-1.1-10.6,11.2-10.8c-2.5-0.3-2.5-0.8-2.4-1.2c-0.6,0.1-2.8-1.1-4.4-1.7l5-0.1c-4.2-2,0.5-2.1-3.6-3.9l0.5,0.9
						c-4.6-2.7-11.2-3.2-17.4-5.7c5.2,3-9.1-1-1.7,3.6c-1.4-0.2-1.9-1.1-3.4-1.5c2.5,1.4,2.9,2.1,1.4,2.4l-0.6-0.4
						c-0.2,2.5-3.2,2.4-6,4.2l3.2,1c-0.6,0.4-1.6,0.1-2.5,0c4.4,2.5,0.9-1.4,5.8,1.2c-6.6-1.8-1.6,3.8-8.9,1.4
						c-0.4,0.8,3.7,1.2,3.3,2l-2-0.6l2.4,1.2c-0.6,0.4-3.1-0.3-4.8-1c0.2-0.1-0.3-0.6-0.4-0.8c-2.5-0.2,0,2.3-0.9,2.2l1.5-0.3
						c0.9,3-2.7,4.7,0.3,8.5l1.5,0.4c2,2.8-2.1,0.7-1.6,3l-0.3-0.2c1.3,1,1.8,1.7,1.5,2.2c-1.5-1.2-3.6-0.5-5.3-1.9
						c2.1,3,1.9,1.8,6.8,5.2L199,351c2,1.3,3.1,1.8,3.4,3c-1.8-1.6-3.9-0.9-6.3-2.9c-6-0.3,4.1,5-3.9,2.7c6.3,3.6,4.4-0.1,5.6,1
						c2.3,0.5,4.7,2.8,3.7,3.1c-0.4,0.5-8.9-2.5-9.4-0.9c0.1-0.1-0.4-0.4-0.3-0.5c-1.9-0.1,1.8,2.1-1.2,1.6c3.8,2.1-0.6,0.8,4.5,3.1
						l-0.6-1.9c1,1.4,6.7,4.6,3.2,4.7c-1-0.5-2.2-1.5-2.8-2.1c-1.7-0.2,0.7,1.2-1,0.9c-5.1-2.3-0.4-2.2-3.9-4.7
						c-2.3-0.5,3,3.2-2.3,0.4c6.8,3.6-1.5,1.1,3.4,4.4l-3-1.4c0.4,0.4,1.7,1.3,1.5,1.6l-3.7-2.2c3,2.3-3.6,0.4-2.1,1.9
						c0.6-1.7,3.9,1.2,6.4,1.4c3.2,3.8-8.5-2.2-8,0.7c-0.3-0.5,2.3-0.4,3.5,0.7c-0.8,0.2-2.2,0.3-4-0.2c0,1.8,3.2,1.1,4.9,2.6
						c-3.9-1.1,1.2,1.4,2.1,2.6l-3.1-1.3c-2.7,0.9,6.3,3.2,3.2,3.8l-4-2.5l0.8,1.3l-3.5-1.7c2.2,2,1.4,2,0.1,2.5
						c2.3,0.7,5.6,2.5,5.3,3.3c-2.1-0.3-2.8-1.6-2.8-0.3c-1.8-1.1-4.2-2.4-1.1-1.7c-1-0.5-1.8-1.1-2.8-1.6c-2.4-0.3-1.1,1.2-1.2,1.6
						c0.2-0.1,0.4-0.2,0.9-0.1l3.6,3.4c-1.3-0.3-2.1-0.9-3-1.4c0.2,0.5,1.5,1.3,1.6,1.9c-2.5-1.2-5.1-2.3-6-3.5l2.1,2.7
						c-1.1-0.4-3.3-0.5-4.2-1.1c-1.8,0.2,4,4.2,1.6,4.4c0.5,0.3,0.9,0.6,1.1,1c-1,0.8-4.5,0.4-1.6,3.1l-4.8-1.3
						c0.6,1.4,6.1,1.5,7.1,3.9c0.9,1.8-4-1.3-5.5-1.4c2,1.6,6.2,4.6,2.1,4C173.6,389.2,174.4,389.2,174.2,388.7z M171,401.5
						c-0.5-0.5-2.3-1.9-0.4-1.2C173.9,402.1,172.1,401.6,171,401.5z M170.1,423c-0.9-0.6-0.3-0.7,1-0.4
						C171.3,422.9,171.1,423.1,170.1,423z M167.3,483.5c-0.1,0-0.1-0.1-0.1-0.1C168.6,483.4,168.1,483.4,167.3,483.5z M165.5,483.9
						c0.4,0.3,0.8,0.5,1.2,0.7c-0.7-0.5-0.7-0.7-0.3-0.9C165.6,483.4,165,483.2,165.5,483.9z M217.2,367.2l-0.9-0.1
						C215.6,366.2,216.4,366.7,217.2,367.2z"/>
					<path fill="#FF2020" d="M166.9,419c0.5,0.2,1.1,0.4,1.7,0.7C168.1,419.3,167.5,419.1,166.9,419z"/>
					<path fill="#FF2020" d="M175.9,380.6C175.9,380.6,175.9,380.6,175.9,380.6c-0.1-0.1-0.3-0.2-0.5-0.3L175.9,380.6z"/>
					<path fill="#FF2020" d="M147.8,454.9c0.5,0,1.2,0.1,1.8,0.3C148.9,454.8,148.2,454.6,147.8,454.9z"/>
					<path fill="#FF2020" d="M167.8,492.1l-0.4-1.1c0,0.4-0.7,0.2-1.3,0.1C166.8,491.5,167.9,491.8,167.8,492.1z"/>
					<path fill="#FF2020" d="M146.2,488.6c0.3,0.3-0.1,0.2,0.3,0.5l1.4,0.7C148,489.3,147,488.5,146.2,488.6z"/>
					<path fill="#FF2020" d="M157.5,487.7c-2.6-1.2-1.9-0.4-1.7,0.4c0,0,0-0.1,0-0.1C159.3,489.9,158.4,488.8,157.5,487.7z"/>
					<path fill="#FF2020" d="M155.8,488.2c0,0.2,0,0.4-0.2,0.5C157.1,489.4,156.1,488.6,155.8,488.2z"/>
					<path fill="#FF2020" d="M166.5,486.1c-0.8-0.1,3.2,1.8,2.1,1.4C171.7,489.3,165.4,484,166.5,486.1z"/>
					<polygon fill="#FF2020" points="148.9,483.9 152.1,485.3 149.7,483.8 					"/>
					<path fill="#FF2020" d="M153.1,481.3l-1.3,0.3c0.5,0.3,0.8,0.5,1,0.7C153.1,481.9,154,481.7,153.1,481.3z"/>
					<path fill="#FF2020" d="M152.8,482.4c-0.2,0.2-0.2,0.5,0.2,0.9C153.1,483.1,153.1,482.7,152.8,482.4z"/>
					<polygon fill="#FF2020" points="148.5,482.4 149.3,482.5 149.8,482.1 					"/>
					<path fill="#FF2020" d="M157.7,473.4l-0.5-1.3c-1-0.6-1.8-0.7-1.5-0.2C156.4,472.5,156.6,473.1,157.7,473.4z"/>
					<path fill="#FF2020" d="M147.9,471.7c0.8,0.1,1.5,0.4,2.6,0.8l-3.9-1.9L147.9,471.7z"/>
					<path fill="#FF2020" d="M148.2,468.8c-1-0.6-2.5-2.7-2.8-1.6C146.4,467.9,146.9,469.2,148.2,468.8z"/>
					<polygon fill="#FF2020" points="159.2,458.8 159.1,459 165.6,462.1 					"/>
					<path fill="#FF2020" d="M149.1,440.4c-2,0.2,3.9,2.1,1.5,2.1c1.4,1,1.9,0,3.1,0.9C152.4,442,153.4,442.1,149.1,440.4z"/>
					<path fill="#FF2020" d="M153.7,443.4c0.2,0.2,0.5,0.5,0.8,0.8C154.2,443.8,153.9,443.6,153.7,443.4z"/>
					<polygon fill="#FF2020" points="236.8,328.5 238.4,328.3 236,327.9 					"/>
					<path fill="#FF2020" d="M232.4,325.3l4.3,1.5l-3.7-1.9C233.1,325.1,233.4,325.5,232.4,325.3z"/>
					<path fill="#FF2020" d="M161.8,399.6l1,0.5c1.1,0.4,1.3,0.3,1.6,0.1L161.8,399.6z"/>
					<polygon fill="#FF2020" points="168.8,392.3 168.6,392.4 172.5,393.8 					"/>
					<path fill="#FF2020" d="M167.2,383c-0.3,0.2,0.4,0.9,0.1,1.2C166.9,383.2,171.9,385,167.2,383z"/>
				</g>
			</g>
		</g>
	</g>
</g>
</svg>
